<svg width="902" height="934" xmlns="http://www.w3.org/2000/svg"><g fill="none" fill-rule="evenodd"><path d="M861 150L580 540H96l281-390h484zm-94 48H401.9438L190 492h365.0562L767 198zM534 540h36v375h-36zM106 540h36v375h-36z" fill="#C5C4C2"/><g transform="translate(786 150)"><circle stroke="#C5C4C2" stroke-width="12" cx="47" cy="501" r="41"/><path fill="#C5C4C2" d="M29 0h36v501H29z"/></g><g transform="translate(358 492)"><circle stroke="#C5C4C2" stroke-width="12" cx="47" cy="159" r="41"/><path fill="#C5C4C2" d="M29 0h36v159H29z"/></g><g transform="translate(386 262)"><circle stroke="#C5C4C2" stroke-width="24" cx="88" cy="88" r="76"/><circle fill="#C5C4C2" cx="88" cy="88" r="4"/></g><path d="M147.1293 442.6094a19.7603 19.7603 0 001.0988-1.7576 20.1104 20.1104 0 011.1195-1.7871c.413-.5898.8063-1.1201 1.18-1.591a28.8857 28.8857 0 001.0353-1.3845c.1652-.2359.2581-.4418.2788-.6178.0207-.176-.028-.3052-.146-.3878-.2752-.1928-.6674-.0719-1.1767.3625-.6725.5839-1.261.9117-1.7653.9834-.5043.0717-.9875-.1275-1.4495-.5974-.1887-.1908-.3995-.4336-.6325-.7286-.233-.295-.4836-.617-.7519-.966a74.6616 74.6616 0 01-.7755-1.0264 48.5302 48.5302 0 00-.6738-.8893c-.1494-.1632-.2408-.3151-.2742-.4557-.0334-.1406-.002-.2797.0944-.4173l3.7168-5.3081c.1514-.2163.289-.3396.413-.37.1238-.0305.2782-.0104.463.0604.5092.1515 1.0592.3389 1.65.5621l1.7031.6432c.5446.2055 1.0046.3958 1.3802.5708.5269.2518.803.621.8285 1.1076.0255.4866-.1505 1.1251-.5281 1.9154-.1121.2438-.1692.4822-.1712.7152-.002.233.0756.4046.233.5147.1375.0963.2924.0949.4644-.0044.172-.0992.327-.2472.4646-.4438.234-.3342.5098-.749.8274-1.2444l.9528-1.4863c.3176-.4954.6141-.9397.8894-1.333.3166-.4521.6893-.953 1.118-1.5024.4287-.5495.8421-1.0877 1.2404-1.6146.3982-.5268.7212-.9672.969-1.321.1376-.1967.2217-.3795.2522-.5486.0305-.169-.0132-.295-.1312-.3775-.177-.124-.3627-.1515-.5574-.0827-.1946.0688-.411.2103-.6489.4246-.3736.3244-.7575.5903-1.1517.7976-.3943.2074-.8416.3337-1.342.3788-.5004.0452-1.078-.0296-1.7326-.2244l-4.3102-1.282a801.1351 801.1351 0 01-4.9-1.4753 2846.4312 2846.4312 0 01-5.177-1.5815 417.7385 417.7385 0 01-5.1713-1.6213 11.3106 11.3106 0 00-.466-.1505 3.299 3.299 0 00-.4571-.1004c-.1396-.0098-.2251.0182-.2566.084-.0315.066-.0482.1421-.0502.2286.0491.181.113.4454.1916.7934.0786.348.0904.7078.0352 1.0794-.1022.3972-.2036.751-.3039 1.0617a27.753 27.753 0 01-.3422.9909c.116.1691.3135.41.5927.7226.2791.3127.6477.7905 1.1057 1.4335.916 1.286 1.7766 2.5258 2.5816 3.7194a983.8619 983.8619 0 012.3662 3.5246 148.1567 148.1567 0 012.2911 3.538 3061.134 3061.134 0 012.356 3.759c.3911.6549.6009 1.3072.6293 1.957.0284.6498-.0783 1.3148-.3203 1.9951-.0865.291-.1323.5446-.1372.7609-.005.2163.081.3864.258.5102.1573.1102.3254.1107.5043.0016.179-.1091.351-.2816.5162-.5175zm-.7674-17.1057l-2.8702 4.099c-.11.1573-.2227.2763-.3377.3568-.115.0806-.2217.0865-.32.0177-.059-.0413-.1238-.116-.1946-.2242l-5.107-7.2676c-.1868-.2773-.2664-.4355-.2389-.4749.0413-.059.2271-.0314.5574.0827l8.2575 2.7056.2079.0797c.0462.0177.0988.0472.1578.0885.118.0825.0805.2615-.1122.5367zm22.2184-12.9647c1.06-1.5138 1.53-2.9279 1.4103-4.2423-.1197-1.3144-.7792-2.3914-1.9784-3.2311-1.0027-.702-1.9965-.9878-2.9816-.8572-.985.1306-2.2454.5812-3.7811 1.3517-.8082.401-1.4998.6565-2.0749.7665-.5751.11-1.0691.0205-1.482-.2686-.5111-.3579-.7819-.8185-.8123-1.3818-.0304-.5633.1127-1.071.4293-1.5232.358-.5112.8613-.8326 1.5102-.9642.6488-.1317 1.4264-.0706 2.3328.1832.1062.0157.2468-.0177.4218-.1003.175-.0825.3106-.1926.407-.3302.2065-.295.2213-.5043.0443-.6282-.5701-.3992-1.15-.732-1.7399-.9986-.5898-.2664-1.038-.3899-1.3448-.3703-.2753.1003-.6572.3529-1.1459.7578-.4886.405-.9532.922-1.3937 1.5511-.6195.8847-1.0094 1.7763-1.1697 2.6748-.1604.8985-.0961 1.7273.1928 2.4863.289.759.797 1.393 1.5245 1.9024.6487.4543 1.3103.7124 1.9847.7745.6744.062 1.367-.017 2.0778-.2372.7108-.22 1.4466-.5178 2.2076-.8933.8416-.4068 1.5735-.678 2.1958-.8136.6223-.1356 1.1989-.0176 1.7297.3541.4522.3166.7402.7527.864 1.3081.1237.5555-.007 1.1084-.3925 1.6589-.4543.6488-1.1209 1.0463-1.9998 1.1927-.8789.1463-1.8678.0838-2.9669-.1877-.1258-.0295-.2625-.0226-.41.0206-.1474.0432-.2693.1336-.3657.2713-.234.3342-.233.5839.0029.749a18.3207 18.3207 0 001.8121 1.1151c.638.3442 1.1428.5438 1.5144.599.6646-.2379 1.2835-.5883 1.8567-1.0512.5732-.463 1.08-1.009 1.5205-1.638zm-8.373-20.3656c.413-.5898.5605-1.219.4427-1.8875-.1179-.6685-.452-1.1955-1.0025-1.5809-.6095-.4267-1.2485-.5812-1.917-.4633-.6685.1179-1.2092.4717-1.6222 1.0615-.3992.5701-.5399 1.1894-.422 1.858.1179.6685.4815 1.216 1.091 1.6428.5504.3855 1.16.5193 1.8284.4014.6686-.1179 1.2024-.4619 1.6016-1.032zm12.7978 13.3559c.2754-.3932.5118-.7623.7095-1.1073.1976-.345.3968-.6818.5973-1.01.2006-.3284.418-.6597.652-.9939a20.553 20.553 0 01.7418-.9967c.2468-.3106.5005-.631.761-.9614.2606-.3302.5217-.6821.7832-1.0557.234-.3342.2331-.5839-.0028-.749-.1573-.1102-.3116-.1304-.463-.0606-.1514.0698-.3117.1626-.4808.2786-.468.3755-.8563.6163-1.165.7224-.3087.1062-.6105.056-.9054-.1505l-6.6352-4.646c-.4718-.3304-.9608-.7094-1.467-1.1371a60.5098 60.5098 0 01-1.42-1.236c-.4403-.3962-.7912-.7005-1.0527-.9129-.1966-.1376-.3706-.0983-.522.118-.055.0786-.1102.3037-.1653.6753-.065.5112-.1697 1.2362-.3144 2.175-.1446.9388-.449 1.9489-.9132 3.0302-.1317.23-.06.4414.2152.6341.118.0826.2419.1254.3716.1284.1298.003.239-.0379.3274-.1224.409-.4168.8396-.6133 1.2919-.5897.4522.0237.9928.2558 1.622.6963l6.3992 4.4808c.3342.234.4978.5024.4909.8052-.007.3028-.1166.7314-.329 1.2858-.0708.1848-.1082.3637-.1122.5367-.004.173.0727.3146.23.4248.118.0826.2458.0988.3834.0487.1376-.0501.2615-.1538.3716-.3111zm15.5899-22.2646c.0825-.118.139-.2614.1696-.4305.0305-.1691-.0132-.295-.1312-.3775-.1573-.1102-.3283-.1274-.5132-.0517a2.838 2.838 0 00-.5309.2874c-.3047.2261-.5987.4158-.8819.5691-.2831.1533-.6213.0924-1.0145-.183l-6.4287-4.5014c-1.2582-.881-2.5081-1.2508-3.7498-1.1094-1.2416.1414-2.2135.7134-2.9155 1.716-.6333.9044-1.0242 1.8392-1.1727 2.8046-.1486.9653-.1424 2.0025.0187 3.1114-.0334.006-.0978-.0172-.1932-.0693a2.7774 2.7774 0 01-.261-.1608c-.2752-.1927-.5824-.4444-.9215-.7551-.3391-.3107-.5775-.5142-.715-.6106a.6781.6781 0 00-.2522-.1106c-.0895-.0187-.1686.021-.2375.1194-.055.0786-.0806.1779-.0767.2978.004.12-.002.233-.0177.3392-.063.7176-.1993 1.5085-.4088 2.3726-.2095.8641-.4766 1.6953-.801 2.4935-.0847.2044.0008.3961.2564.5751.1573.1101.291.1598.401.149a.8017.8017 0 00.3068-.0929c.3874-.344.788-.4663 1.2019-.367.4138.0994.8469.3074 1.299.624l6.6057 4.6253c.3932.2753.5725.584.538.9261-.0344.3421-.1155.6882-.2434 1.0381-.0787.238-.1234.4483-.1343.6311-.0108.1829.0624.3294.2197.4395.118.0826.2526.089.404.0192.1515-.0697.2822-.1833.3923-.3405.2754-.3932.5084-.7574.6992-1.0926.1907-.3352.3795-.6572.5664-.9658.1868-.3087.3972-.6301.6312-.9644.2478-.3538.4779-.6615.6903-.923.2124-.2614.4365-.5293.6725-.8035.236-.2743.4916-.608.767-1.0012.11-.1573.1651-.3092.1652-.4556 0-.1465-.059-.261-.177-.3436-.2359-.1652-.5672-.0896-.9939.227-.285.2397-.5707.428-.8568.5646-.286.1366-.6257.0672-1.019-.208l-7.0184-4.9145a1.202 1.202 0 01-.2978-.2964c-.0806-.115-.1229-.2326-.1268-.3525-.0334-.58.009-1.1217.127-1.625.118-.5033.363-1.0204.7346-1.5512.4543-.6488 1.0417-1.0065 1.7623-1.0733.7206-.0667 1.4741.1752 2.2605.7259l5.9864 4.1917c.3932.2753.5696.5673.5292.876-.0403.3086-.1146.6448-.2228 1.0086-.0511.1985-.0738.3878-.0679.5677.0059.1799.0875.3249.2447.435.118.0826.2478.0856.3893.009.1416-.0767.2468-.1642.3156-.2625.2754-.3932.505-.7525.6888-1.0779.184-.3253.3693-.6424.5561-.951.1868-.3087.3973-.6301.6313-.9643.2478-.3539.4813-.6665.7005-.9378.2193-.2713.447-.544.683-.8183.2359-.2742.4915-.608.7669-1.0012zm-11.208-15.6266c.413-.5898.5606-1.219.4427-1.8874-.1178-.6685-.452-1.1955-1.0025-1.581-.6094-.4267-1.2484-.5811-1.917-.4632-.6684.1178-1.2092.4717-1.6222 1.0615-.3992.57-.5398 1.1894-.422 1.858.118.6684.4816 1.216 1.091 1.6428.5505.3854 1.16.5192 1.8285.4013.6685-.1178 1.2024-.4618 1.6016-1.032zm12.7979 13.356c.2753-.3932.5118-.7624.7095-1.1074.1976-.345.3967-.6817.5973-1.01.2006-.3283.418-.6596.652-.9938a20.553 20.553 0 01.7418-.9968c.2468-.3106.5005-.631.761-.9613.2606-.3303.5217-.6822.7832-1.0557.234-.3342.233-.584-.0028-.7491-.1573-.1102-.3117-.1303-.463-.0605-.1515.0697-.3117.1626-.4808.2786-.468.3755-.8564.6163-1.165.7224-.3088.1061-.6106.056-.9055-.1506l-6.6351-4.646c-.4718-.3303-.9609-.7093-1.467-1.137a60.5098 60.5098 0 01-1.42-1.236c-.4403-.3962-.7912-.7005-1.0527-.913-.1966-.1376-.3706-.0983-.522.118-.0551.0786-.1102.3037-.1653.6753-.065.5112-.1698 1.2362-.3144 2.175-.1446.9389-.449 1.949-.9132 3.0303-.1318.23-.06.4414.2152.634.118.0827.2418.1255.3716.1284.1298.003.2389-.0378.3274-.1223.409-.4168.8396-.6134 1.2918-.5897.4522.0237.9929.2557 1.622.6963l6.3992 4.4807c.3342.234.4979.5025.491.8052-.007.3028-.1166.7314-.329 1.2859-.0709.1848-.1083.3637-.1122.5367-.004.173.0727.3146.23.4247.118.0826.2457.0989.3834.0487.1376-.05.2615-.1538.3716-.311zm8.522-11.4802c1.06-1.5138 1.53-2.928 1.4103-4.2423-.1198-1.3144-.7793-2.3915-1.9785-3.2312-1.0027-.702-1.9965-.9878-2.9816-.8571-.985.1306-2.2454.5811-3.781 1.3517-.8082.401-1.4999.6564-2.075.7665-.575.11-1.069.0205-1.482-.2686-.511-.358-.7819-.8185-.8123-1.3818-.0303-.5634.1128-1.0711.4294-1.5233.3579-.5111.8613-.8325 1.5101-.9642.6489-.1316 1.4265-.0705 2.3328.1832.1062.0158.2468-.0176.4218-.1002.175-.0826.3107-.1926.407-.3303.2065-.2948.2213-.5042.0444-.6281-.5702-.3992-1.1501-.7321-1.74-.9986-.5898-.2665-1.038-.39-1.3448-.3703-.2752.1002-.6572.3528-1.1458.7578-.4887.405-.9533.922-1.3938 1.551-.6194.8848-1.0093 1.7764-1.1697 2.6749-.1604.8985-.0961 1.7272.1928 2.4862.289.759.7971 1.3931 1.5245 1.9025.6488.4543 1.3104.7124 1.9847.7744.6744.062 1.367-.017 2.0778-.237.7108-.2202 1.4467-.518 2.2076-.8934.8416-.4069 1.5735-.6781 2.1959-.8137.6223-.1356 1.1988-.0175 1.7296.3542.4522.3166.7402.7526.864 1.308.1238.5555-.007 1.1085-.3925 1.659-.4543.6487-1.1209 1.0463-1.9998 1.1926-.8788.1464-1.8678.0838-2.9669-.1876-.1258-.0296-.2624-.0227-.41.0205-.1474.0433-.2693.1337-.3656.2713-.234.3342-.2331.584.0028.7491a18.3207 18.3207 0 001.8121 1.115c.638.3443 1.1428.5439 1.5144.599.6646-.2378 1.2835-.5882 1.8567-1.0511.5732-.463 1.08-1.009 1.5205-1.6381zm8.2388-11.7663c.4956-.7078.8275-1.4642.9957-2.2693.1682-.8051.2292-1.5095.1831-2.1131-.0461-.6036-.1183-.9399-.2166-1.0087-.1376-.0964-.2826-.1613-.435-.1947-.1524-.0335-.263-.001-.3318.0973-.0275.0393-.0423.1022-.0443.1887-.0275.3323-.092.6754-.1933 1.0293-.1013.3539-.3447.806-.7301 1.3565-.4267.6095-.9783.9264-1.6547.951-.6763.0244-1.447-.2662-2.312-.872l-5.662-3.9645c-.3146-.2202-.4625-.4483-.4438-.6843.0187-.2359.1864-.58.503-1.0321l1.9616-2.8015c.0689-.0983.0193-.2576-.1488-.4778s-.38-.4198-.6355-.5988c-.1376-.0964-.2959-.1632-.4748-.2006-.179-.0374-.289-.0266-.3303.0324l-2.4366 3.4797c-.1652.236-.3318.3903-.5.463-.168.0727-.3632.0167-.5853-.1682l-1.498-1.3126c-.1691-.177-.319-.2453-.4498-.205-.1307.0403-.2512.139-.3613.2963-.0826.118-.1156.2487-.0989.3922.0167.1436.026.3186.028.525.0628.4542.1316 1.015.2062 1.6826.0746.6675.1188 1.3576.1324 2.0704.0137.7127-.0395 1.364-.1595 1.9538-.0217.0728-.0084.148.0398.2256.0481.0777.0919.1303.1312.1578.177.124.3863.212.6281.264.2419.0522.404.0193.4867-.0987l.2271-.3243c.2812-.3598.5059-.576.674-.6488.1681-.0727.3308-.054.4881.0561l6.812 4.7699c1.1993.8397 2.3268 1.175 3.3827 1.0061 1.0558-.1689 1.9967-.8432 2.8227-2.0227zm7.9145-11.9935c.2477-.3538.2439-.6203-.0117-.7992-.1573-.1101-.3082-.1352-.4527-.0753-.1445.06-.322.1774-.5324.3524-.529.4207-.9763.6934-1.342.8182-.3657.1248-.7255.0633-1.0794-.1845l-5.1902-3.6342c-1.0616-.7433-1.6366-1.439-1.725-2.0868-.0884-.6478.0395-1.2175.3837-1.709.11-.1573.2699-.3018.4793-.4335.2094-.1317.4154-.2585.6179-.3803a5.2633 5.2633 0 00.6223-.3553c.1927-.1288.3441-.2718.4543-.429.1927-.2753.2552-.6051.1874-.9895-.0678-.3844-.2073-.7605-.4186-1.1282-.2114-.3677-.4546-.6479-.7299-.8406-.3538-.2478-.7485-.3117-1.184-.1919-.4356.1199-.853.4649-1.2522 1.035-.3166.4522-.5118.982-.5856 1.5896-.0738.6075-.0714 1.2318.0071 1.8728.0786.641.2142 1.2632.4068 1.8669-.0413.059-.121.0471-.239-.0354-.2417-.1987-.5214-.4165-.8389-.6534-.3175-.237-.6104-.4567-.8788-.6593-.2683-.2025-.4418-.3314-.5205-.3864-.1966-.1377-.35-.1279-.46.0294-.0413.059-.0738.1681-.0974.3274a5.8965 5.8965 0 00-.0502.4482c-.0748.6508-.2204 1.4132-.4368 2.2871-.2164.874-.4525 1.6609-.7082 2.3608-.0924.2575-.0109.4758.2447.6547.1376.0964.2684.1294.3923.0989.1238-.0305.233-.0712.3273-.1224.3874-.344.7782-.4732 1.1724-.3876.3942.0856.8174.2867 1.2696.6033l6.6351 4.646c.2949.2064.4674.4517.5175.7359.0501.284-.0104.6739-.1815 1.1693-.0787.2379-.1235.4483-.1343.6311-.0109.1829.0624.3294.2196.4395.118.0826.2527.089.404.0192.1515-.0698.2822-.1833.3924-.3406.2753-.3932.5083-.7574.699-1.0926.1909-.3352.3831-.662.5768-.9805a18.195 18.195 0 01.6416-.979c.358-.5112.7438-1.01 1.1578-1.4966.414-.4866.8274-1.0248 1.2404-1.6146zm-9.1843-18.5165c.413-.5898.5605-1.219.4426-1.8875-.1179-.6685-.452-1.1955-1.0025-1.581-.6094-.4267-1.2484-.5811-1.917-.4632-.6684.1179-1.2092.4717-1.6222 1.0615-.3992.5701-.5398 1.1894-.422 1.858.118.6684.4816 1.216 1.091 1.6428.5505.3855 1.16.5192 1.8285.4014.6685-.118 1.2024-.462 1.6016-1.032zm12.7978 13.3559c.2753-.3932.5118-.7623.7094-1.1074.1977-.345.3968-.6817.5974-1.01.2006-.3283.4179-.6596.652-.9938a20.553 20.553 0 01.7418-.9967c.2468-.3107.5005-.6311.761-.9614.2606-.3303.5216-.6822.7832-1.0557.234-.3342.233-.584-.0028-.7491-.1573-.1101-.3117-.1303-.463-.0605-.1515.0697-.3117.1626-.4808.2786-.468.3755-.8564.6163-1.165.7224-.3088.1061-.6106.056-.9055-.1505l-6.6351-4.646c-.4718-.3304-.9609-.7094-1.467-1.1371a60.5098 60.5098 0 01-1.42-1.236c-.4403-.3962-.7913-.7005-1.0527-.9129-.1966-.1377-.3706-.0984-.522.1179-.0551.0786-.1102.3038-.1653.6754-.065.5111-.1698 1.2362-.3144 2.175-.1447.9388-.449 1.9489-.9132 3.0302-.1318.23-.06.4414.2152.6341.118.0826.2418.1254.3716.1283.1297.003.2389-.0378.3274-.1223.409-.4168.8396-.6133 1.2918-.5897.4522.0237.9929.2558 1.622.6963l6.3992 4.4808c.3342.234.4979.5024.491.8052-.007.3027-.1167.7314-.329 1.2858-.0709.1848-.1083.3637-.1122.5367-.004.173.0727.3146.23.4247.118.0826.2457.0989.3833.0488.1377-.0502.2616-.1539.3717-.3111zm8.522-11.4802c1.0599-1.5138 1.53-2.9279 1.4103-4.2423-.1198-1.3144-.7793-2.3914-1.9785-3.2312-1.0027-.702-1.9965-.9877-2.9816-.8571-.985.1306-2.2454.5812-3.781 1.3517-.8082.401-1.4999.6565-2.075.7665-.5751.11-1.069.0205-1.482-.2686-.511-.358-.7819-.8185-.8123-1.3818-.0304-.5633.1128-1.071.4294-1.5232.3579-.5112.8613-.8326 1.5101-.9642.6489-.1317 1.4265-.0706 2.3328.1831.1062.0158.2468-.0176.4218-.1002.175-.0825.3107-.1926.407-.3302.2065-.295.2213-.5043.0443-.6282-.57-.3992-1.15-.732-1.7399-.9986-.5898-.2665-1.038-.39-1.3448-.3703-.2752.1002-.6572.3528-1.1458.7578-.4887.405-.9533.922-1.3938 1.5511-.6194.8847-1.0094 1.7763-1.1697 2.6748-.1604.8985-.0961 1.7273.1928 2.4862.289.759.797 1.3932 1.5245 1.9025.6488.4543 1.3103.7124 1.9847.7745.6744.062 1.367-.017 2.0778-.2372.7108-.22 1.4467-.5179 2.2076-.8933.8416-.4069 1.5735-.678 2.1958-.8137.6223-.1355 1.199-.0175 1.7297.3542.4522.3166.7402.7526.864 1.308.1238.5555-.007 1.1085-.3925 1.659-.4543.6487-1.1209 1.0463-1.9998 1.1927-.8789.1463-1.8678.0838-2.9669-.1877-.1258-.0295-.2624-.0227-.41.0206-.1474.0432-.2693.1336-.3657.2712-.234.3343-.233.584.0029.7491a18.3207 18.3207 0 001.8121 1.1151c.638.3442 1.1428.5438 1.5144.599.6646-.2379 1.2835-.5883 1.8567-1.0512.5732-.463 1.08-1.009 1.5205-1.6381zM731.0455 345.1552a19.7603 19.7603 0 00-1.1293 1.7381 20.1104 20.1104 0 01-1.1505 1.7673c-.4232.5825-.8257 1.1059-1.2075 1.5701-.3818.4643-.735.9197-1.0594 1.3662-.1693.233-.2658.4373-.2895.613-.0238.1755.0226.3056.1391.3902.2718.1975.6661.0835 1.183-.342.6825-.572 1.2766-.8894 1.7821-.9523.5055-.063.9851.1446 1.4388.6226.1854.194.392.4405.6197.7395.2278.299.4728.6253.735.979.2622.3536.5147.7002.7574 1.0398.2428.3395.4622.6398.6582.9009.1465.1658.2353.3192.2662.4604.031.1411-.003.2797-.1017.4156l-3.8088 5.2424c-.1552.2136-.295.3345-.4194.3628-.1244.0283-.2783.0054-.4619-.0686-.5065-.1603-1.0531-.3572-1.64-.5908-.5867-.2335-1.1506-.4577-1.6915-.6728-.541-.215-.9976-.4133-1.37-.5948-.5225-.261-.7922-.6349-.8092-1.1219-.017-.487.1702-1.1223.5616-1.906.1163-.2417.1775-.479.1836-.712.006-.2329-.0686-.4058-.224-.5186-.1358-.0988-.2907-.1-.4644-.0038-.1738.0963-.3312.2415-.4723.4356-.2398.3301-.5228.74-.849 1.2299l-.9786 1.4694c-.3262.4898-.6304.9289-.9125 1.3172-.3245.4466-.7058.9408-1.144 1.4827-.4383.542-.861 1.0728-1.2684 1.5927-.4074.5198-.738.9545-.992 1.304-.141.1941-.2282.3755-.2617.544-.0334.1685.0081.2951.1246.3798.1747.127.36.1577.5559.0923.1958-.0653.4145-.203.6562-.4132.3792-.3178.7677-.5769 1.1655-.7774.3978-.2004.8473-.3189 1.3484-.3553.501-.0364 1.0772.0485 1.7284.2546l4.2871 1.357a801.1351 801.1351 0 014.8735 1.5607c1.6933.548 3.4095 1.1051 5.1487 1.6716a417.7385 417.7385 0 015.1422 1.7113c.1641.06.3186.1128.4633.1586a3.299 3.299 0 00.4553.1083c.1394.0123.2254-.0142.258-.0795.0326-.0653.0507-.1412.0541-.2277-.046-.1817-.1052-.4472-.1777-.7965-.0725-.3494-.078-.7093-.0164-1.08.1092-.3952.2167-.7473.3224-1.0561a27.753 27.753 0 01.3595-.9848c-.113-.1711-.3063-.4154-.58-.7329-.2736-.3175-.6338-.8017-1.0805-1.4526-.8935-1.3017-1.7323-2.5563-2.5163-3.7638a983.8619 983.8619 0 01-2.3044-3.5654 148.1567 148.1567 0 01-2.229-3.5774 3061.134 3061.134 0 01-2.2899-3.7997c-.3797-.6615-.578-1.3173-.5951-1.9675-.0171-.6503.1012-1.3133.355-1.9893.0916-.2894.1418-.5422.1505-.7583.0087-.2162-.0743-.3878-.249-.5147-.1554-.1129-.3234-.1163-.5042-.0104-.1809.106-.3559.2755-.5252.5085zm.4687 17.1164l2.9413-4.0483c.1129-.1553.2275-.2723.344-.3509.1163-.0785.223-.0826.3202-.012.0582.0423.1218.1181.1907.2275l4.9794 7.3557c.1819.2804.2587.44.2305.479-.0423.0582-.2276.0274-.5559-.0925l-8.209-2.8493-.2065-.0832c-.0458-.0185-.098-.049-.1562-.0913-.1165-.0846-.076-.2628.1215-.5347zm-26.819 18.2941c-.0422.0583-.0735.132-.0938.221l-.091.401c-.2361.8966-.5136 1.748-.8326 2.5546-.319.8066-.6795 1.5681-1.0814 2.2847-.0706.097-.0718.252-.0038.4645.068.2126.1797.3753.335.4882.2136.1552.4165.08.6087-.2253.2433-.4165.4165-.706.5197-.8684.1031-.1624.19-.2921.2605-.3892.1693-.233.4348-.2922.7966-.1777.3618.1145.8727.4116 1.5329.8912l14.1202 10.3925c.4907.3862.9245.7384 1.3014 1.0567a122.5543 122.5543 0 011.222 1.0436c.1942.141.3618.1145.5028-.0797.0141-.0194.0384-.0833.0727-.1919.0344-.1085.0833-.288.1467-.5387.1162-.5682.306-1.2684.5693-2.1005.2634-.832.5829-1.6902.9583-2.5744.0828-.2365.0174-.4323-.1962-.5875-.233-.1693-.4562-.1683-.6696.003-.388.3707-.7982.5474-1.2305.53-.4323-.0175-1.0174-.2943-1.7552-.8303l-3.6697-2.6662c-.33-.2398-.4599-.4083-.3893-.5054.014-.0194.1349-.1244.3624-.3151.261-.196.5393-.4462.8347-.7508a8.7746 8.7746 0 00.8029-.9519c.9875-1.3591 1.559-2.7683 1.7144-4.2277.1554-1.4593-.0684-2.8457-.6716-4.159-.6032-1.3135-1.5359-2.4286-2.798-3.3456-1.0679-.7758-2.2358-1.261-3.5037-1.4553-1.2678-.1944-2.4818-.0752-3.6417.3577-1.16.4328-2.135 1.193-2.925 2.2803-.6207.8543-.9656 1.768-1.0349 2.7412-.0692.9731.034 1.8417.3096 2.6056l-.1747-.127a168.5005 168.5005 0 01-.719-.6335 23.584 23.584 0 01-.785-.7262c-.0583-.0423-.1796-.0489-.364-.0197-.1843.0292-.2977.073-.34.1312zm3.9696-1.2988c.268-.369.6424-.6902 1.1231-.964.4807-.2737 1.0422-.4442 1.6844-.5116.6423-.0674 1.36.0165 2.1533.2517.7933.2352 1.6365.6773 2.5296 1.3262 1.0874.79 1.8712 1.5894 2.3515 2.3982.4804.8088.7282 1.5599.7435 2.2533.0153.6935-.1463 1.2732-.4848 1.7392-.3668.5048-.8435.8853-1.43 1.1414-.5867.2562-1.1777.3756-1.7732.3582-.5956-.0174-1.0972-.1742-1.505-.4704l-6.0579-4.4014c-.1043-.5504-.0865-1.116.0535-1.6966.14-.5805.344-1.0553.612-1.4242zM696.8 391.7389c-.536.7378-.9084 1.5055-1.1172 2.3032-.2087.7976-.2679 1.563-.1775 2.2961.0903.7332.2741 1.3784.5514 1.9359.219.5151.4645.8714.7363 1.069.233.1692.42.1568.5611-.0374.0424-.0582.0604-.1341.0542-.2276a6.3265 6.3265 0 01-.012-.3203c-.078-.7093-.0559-1.3829.0665-2.0208.1223-.638.388-1.2385.7971-1.8015.5643-.7767 1.2592-1.325 2.0849-1.6447.8256-.3198 1.699-.4194 2.6201-.299.9212.1204 1.7895.4769 2.605 1.0694.3883.2821.6094.5392.6634.7712.0539.232-.0179.484-.2154.7558l-4.2955 5.9122c-.4373.602-.3065 1.1568.3925 1.6647.7378.536 1.5404.8299 2.4076.8815.8673.0517 1.7036-.1194 2.509-.5133.8053-.3939 1.5042-.9986 2.0966-1.814.8041-1.1068 1.2535-2.3378 1.3481-3.693.0947-1.3551-.1473-2.6656-.7257-3.9314-.5785-1.2658-1.46-2.3289-2.6444-3.1894-1.2232-.8887-2.4847-1.4493-3.7843-1.6815-1.2997-.2323-2.5176-.1382-3.6538.2823-1.1361.4205-2.0921 1.1647-2.868 2.2326zm8.8514 6.7424l1.5024-2.0679c.1834-.2524.3915-.294.6245-.1247.4025.2627.6965.6543.882 1.1748.1855.5204.2585 1.063.2191 1.6276-.0394.5647-.2073 1.0509-.5035 1.4586-.4232.5825-.959.9423-1.6074 1.0794-.6484.137-1.2347.0151-1.759-.3658-.1941-.141-.3499-.2839-.4673-.4285-.1174-.1447-.1506-.2726-.0994-.3838a5.4183 5.4183 0 01.4125-.8127c.164-.2665.4293-.6522.796-1.157zm-13.025-.3855c-.2909.4412-.5254.8048-.7035 1.0908-.178.2859-.4011.6133-.6692.9822a24.3518 24.3518 0 01-.5647.7467c-.193.2453-.4404.5551-.742.9294-.0705.097-.145.2506-.2234.4606-.0784.21-.0497.3644.0863.4632.1747.127.3406.1436.4976.05.157-.0936.3307-.1898.5212-.2887.1853-.1325.374-.1881.5664-.167.1923.021.3856.1021.5797.2432.1748.127.3262.2962.4542.508.128.2116.2097.3748.245.4895l1.4415 3.4057c.016.1005-.0264.1588-.127.1747l-3.5017-.1412c-.2788-.0246-.4954-.0633-.6498-.1162a1.6432 1.6432 0 01-.4355-.2274c-.3107-.2257-.474-.4705-.49-.7342-.016-.2638.0218-.5404.1134-.8299.097-.2559.1537-.4667.1704-.6326.0167-.1659-.0623-.3123-.237-.4393-.233-.1693-.5118-.0306-.8363.416-.395.5436-.7353 1.0529-1.0209 1.5276-.2856.4748-.6118.9646-.9786 1.4695-.3245.4466-.607.8049-.8478 1.075-.2407.27-.4766.5437-.7076.8208-.231.2771-.5017.6293-.812 1.0565-.0847.1165-.1689.263-.2526.4394-.0837.1765-.0576.3142.0783.4129.1747.127.3397.1653.495.1149.1552-.0504.3255-.1418.5107-.2742.3757-.2313.7956-.401 1.2596-.5088.464-.1078.9819-.1469 1.5536-.1172l5.9395.3995c.1924.021.3358.0585.4302.1123.0944.0538.1743.1786.2397.3744l1.3068 4.0198c.2262.6687.327 1.224.3025 1.666-.0245.442-.0825.8078-.1742 1.0972-.0492.2312-.0739.4284-.0738.5916.0001.1632.0875.3083.2623.4352.1359.0988.2748.081.4168-.053.142-.1343.2553-.2596.34-.3761.3103-.4272.5272-.7665.6505-1.018.1234-.2515.3192-.5617.5872-.9306.1693-.233.3624-.4784.5793-.736.2169-.2578.4664-.5808.7486-.9692.0705-.097.1498-.247.238-.45.088-.203.0545-.3609-.1009-.4738-.1553-.1128-.3128-.1308-.4724-.054-.1597.0768-.325.1718-.4962.2848-.3422.226-.6589.2332-.9501.0216-.1695-.0934-.3266-.2447-.4714-.4537-.1448-.209-.2596-.4185-.3444-.6284l-.9936-2.3684c-.1043-.224-.0408-.3114.1904-.2621l2.9247.078c.2594.0104.4963.0416.7107.0936.2144.052.3702.1132.4673.1837.1941.141.275.3259.2424.5544a5.104 5.104 0 01-.1307.6392 7.716 7.716 0 00-.132.5493c-.0335.1685.0274.3092.1828.422.1553.113.3123.101.471-.0359.1588-.1368.2805-.2635.3651-.38.395-.5436.6824-.98.8623-1.3092.1798-.3292.453-.7462.8199-1.251.3244-.4466.581-.7793.7697-.9982.1887-.2189.3787-.4294.57-.6315.1914-.2021.4423-.5168.7526-.944.0847-.1164.176-.2727.2737-.4686.0979-.1959.0691-.3502-.0862-.4631s-.3155-.1476-.4804-.1043c-.165.0433-.34.1312-.5253.2636-.3228.2401-.6628.3713-1.0201.3935-.3573.0222-.8218.0185-1.3936-.0112l-4.9998-.1617c-.1923-.0211-.3406-.062-.4447-.1229-.1041-.0608-.1845-.2156-.241-.4644l-1.6541-5.073c-.2421-.7693-.3734-1.3542-.3939-1.7547-.0205-.4005.0151-.7455.1067-1.035.0828-.2364.1194-.4398.1096-.61-.0098-.1703-.0924-.3119-.2477-.4248-.136-.0987-.2797-.0845-.4314.0426s-.277.2586-.3757.3946zm-14.2358 18.9815c-.5079.699-.853 1.4495-1.0352 2.2515-.1822.8021-.2555 1.5053-.22 2.1096.0356.6044.102.9418.199 1.0123.136.0988.2798.1662.4315.2023.1518.036.263.0056.3335-.0915.0282-.0388.044-.1015.0475-.188.0334-.3317.1038-.6736.2113-1.0256.1075-.3521.3587-.8.7537-1.3436.4373-.602.9943-.9092 1.671-.922.6767-.0126 1.4422.2914 2.2965.9121l5.592 4.0628c.3106.2257.4545.4563.4317.692-.0228.2355-.1965.5766-.521 1.0231l-2.0102 2.7669c-.0705.097-.0237.2572.1405.4803.1642.2231.3726.4264.625.6098.1359.0987.293.1684.4712.2089.1782.0405.2885.0316.3308-.0267l2.497-3.4367c.1692-.233.3385-.3844.5079-.4541.1694-.0698.3635-.0104.5824.1783l1.4749 1.3386c.166.1799.3146.2509.446.2129.1315-.038.2536-.1347.3665-.29.0846-.1165.1199-.2467.1057-.3905-.0142-.1438-.0205-.319-.0188-.5254-.055-.4552-.1139-1.0172-.1768-1.6859-.063-.6687-.095-1.3595-.0963-2.0724-.0012-.7128.0633-1.363.1936-1.9507.023-.0724.011-.1478-.0358-.2263-.0468-.0785-.0896-.1319-.1285-.16-.1747-.127-.3825-.2187-.6234-.275-.2409-.0564-.4037-.0263-.4883.0902l-.2328.3204c-.2874.3548-.5158.567-.6852.6368-.1693.0698-.3317.0483-.487-.0646l-6.7278-4.888c-1.1844-.8605-2.306-1.2155-3.3646-1.065-1.0586.1504-2.0111.8082-2.8575 1.9732zm-8.1226 11.8535c-.254.3494-.2547.6159-.0023.7993.1554.1128.3058.1406.4513.0831.1456-.0574.325-.1717.5385-.343.5362-.4114.9882-.6763 1.356-.7947.368-.1184.7266-.0506 1.0761.2033l5.126 3.7242c1.0484.7618 1.6112 1.4673 1.6883 2.1166.077.6494-.0608 1.2167-.4134 1.7021-.1129.1554-.2752.297-.4869.425-.2116.128-.4198.2513-.6244.3696a5.2633 5.2633 0 00-.6285.3444c-.1949.1253-.3488.2657-.4616.421-.1975.2719-.2657.6005-.2047.986.061.3856.194.764.399 1.1353.2048.3713.4431.6558.715.8533.3494.2539.743.3247 1.1805.2125.4376-.1123.8609-.45 1.27-1.013.3244-.4466.5289-.973.6133-1.5791.0844-.6062.0929-1.2304.0255-1.8726a10.2162 10.2162 0 00-.374-1.8738c.0423-.0582.1217-.045.2382.0396.2383.2028.5141.4255.8274.668.3133.2424.6024.4672.8672.6744.2647.2072.436.339.5136.3955.1942.141.3477.134.4606-.0214.0423-.0583.0766-.1668.103-.3256a5.8965 5.8965 0 00.058-.4473c.0862-.6494.245-1.4091.4767-2.2791.2316-.87.4814-1.6527.7492-2.348.097-.256.0192-.4756-.2332-.659-.136-.0988-.266-.134-.3905-.1057-.1243.0283-.2342.0672-.3294.1166-.3933.3372-.7863.4596-1.179.3672-.3926-.0925-.8122-.301-1.2588-.6254l-6.553-4.761c-.2913-.2117-.4595-.46-.5046-.7449-.0452-.285.0222-.6736.2019-1.166.0828-.2365.1312-.446.1453-.6287.014-.1826-.0567-.3303-.212-.4432-.1165-.0846-.251-.0934-.4036-.0263-.1526.0671-.2854.1784-.3982.3337-.2821.3883-.5215.7484-.718 1.0802a39.1668 39.1668 0 01-.5938.9704 18.195 18.195 0 01-.6586.9677 20.1144 20.1144 0 01-1.1837 1.4761c-.4224.4793-.8452 1.0102-1.2684 1.5927zm8.8597 18.674c-.4232.5825-.5817 1.209-.4755 1.8794.1062.6705.4311 1.2032.9748 1.5982.6019.4373 1.238.6029 1.9085.4967.6705-.1062 1.2173-.4505 1.6405-1.033.4091-.5631.5606-1.1799.4544-1.8503-.1062-.6705-.4602-1.2244-1.0621-1.6617-.5437-.395-1.1508-.5394-1.8212-.4332-.6705.1062-1.2103.4408-1.6194 1.0039zm-12.5628-13.5772c-.282.3883-.525.7532-.7286 1.0947a41.5592 41.5592 0 01-.615.9995 19.0522 19.0522 0 01-.669.9823 20.553 20.553 0 01-.7592.9836c-.2522.3063-.5114.6222-.7777.948-.2663.3256-.5335.6729-.8015 1.0418-.2398.33-.2432.5798-.0102.749.1553.113.3093.1358.4619.0686.1526-.067.3144-.1571.4855-.2702.4745-.3672.867-.6012 1.1775-.702.3105-.1006.6114-.0452.9026.1664l6.553 4.761c.466.3386.9484.7262 1.447 1.1626.4988.4365.9648.8567 1.3982 1.2606.4334.4038.779.7142 1.0366.9311.1942.141.3689.1048.524-.1087.0565-.0777.1155-.3018.177-.6724.041-.2833.0956-.6324.1635-1.0473l.088-.5294c.0315-.187.065-.3845.1009-.5925.161-.9362.483-1.9408.966-3.0138.1357-.2277.0676-.4403-.2042-.6378-.1165-.0846-.2396-.1296-.3693-.1348-.1297-.0052-.2395.0336-.3294.1166-.4163.4096-.8503.5986-1.302.567-.4517-.0315-.9882-.273-1.6096-.7244l-6.32-4.5918c-.33-.2398-.489-.511-.4768-.8136.0122-.3027.1293-.7293.3514-1.28.074-.1835.1145-.3617.1215-.5346.007-.173-.0672-.3158-.2225-.4287-.1165-.0846-.244-.1031-.3825-.0554s-.2642.1492-.377.3046zm-8.721 11.3297c-1.0862 1.495-1.5809 2.9007-1.4841 4.217.0968 1.3163.7374 2.4047 1.9218 3.2652.9902.7194 1.979 1.0225 2.9661.909.9872-.1133 2.2553-.5418 3.8042-1.2854.815-.3869 1.511-.6303 2.088-.7302.5769-.1 1.0692-.0019 1.477.2944.5048.3668.7675.832.788 1.3958.0206.5637-.1314 1.0689-.4558 1.5155-.3668.5048-.8757.8174-1.5267.9377-.6511.1203-1.4275.0456-2.3293-.2239-.1059-.0176-.247.0133-.4235.0928-.1764.0795-.314.1872-.4127.3231-.2116.2913-.23.5004-.0553.6274.5631.409 1.1372.752 1.7222 1.0287.5851.2768 1.0312.408 1.3382.3938.277-.0955.6633-.3414 1.1589-.7377.4956-.3964.9692-.9052 1.4206-1.5266.6348-.8737 1.0402-1.7584 1.2162-2.654.176-.8955.1263-1.7253-.1494-2.4892-.2756-.7639-.7726-1.4068-1.491-1.9287-.6408-.4656-1.2977-.7352-1.971-.809-.6731-.0738-1.367-.0069-2.0815.2008-.7146.2077-1.4555.4926-2.223.8547-.8485.392-1.585.6505-2.2096.7752-.6246.1247-1.199-.0034-1.7232-.3843-.4466-.3244-.727-.7654-.841-1.323-.114-.5575.0264-1.1081.4214-1.6518.4655-.6407 1.139-1.0266 2.0202-1.1576.8813-.131 1.869-.0511 2.9632.2395.1253.0317.262.0272.4102-.0135.1482-.0406.2717-.1289.3705-.2648.2398-.33.2432-.5798.0102-.749a18.3207 18.3207 0 00-1.7924-1.1466c-.6319-.3552-1.1331-.5636-1.5037-.6252-.6686.2262-1.2935.5657-1.8747 1.0186-.5812.4528-1.0975.99-1.549 1.6113zM497.44 140.144c.576 0 1.152-.018 1.728-.054.576-.036 1.14-.066 1.692-.09.552-.024 1.092-.036 1.62-.036.504 0 1.026.012 1.566.036.54.024 1.098.048 1.674.072.576.024 1.152.036 1.728.036.24 0 .432-.036.576-.108.144-.072.216-.192.216-.36 0-.192-.078-.336-.234-.432-.156-.096-.39-.18-.702-.252-.912-.24-1.566-.528-1.962-.864-.396-.336-.594-.876-.594-1.62V120.2c0-.768.168-1.32.504-1.656.336-.336.984-.624 1.944-.864.288-.072.51-.162.666-.27.156-.108.234-.258.234-.45 0-.168-.072-.294-.216-.378-.144-.084-.336-.126-.576-.126-.576 0-1.14.012-1.692.036-.552.024-1.086.048-1.602.072a32.93 32.93 0 01-1.53.036c-.528 0-1.05-.012-1.566-.036-.516-.024-1.05-.048-1.602-.072-.552-.024-1.116-.036-1.692-.036-.216 0-.408.042-.576.126-.168.084-.252.198-.252.342 0 .384.3.636.9.756.936.192 1.572.456 1.908.792.336.336.504.9.504 1.692v16.344c0 .768-.204 1.32-.612 1.656-.408.336-1.068.6-1.98.792-.6.12-.9.36-.9.72 0 .144.084.258.252.342.168.084.36.126.576.126zm29.952-.036c.144 0 .294-.036.45-.108.156-.072.234-.18.234-.324 0-.192-.084-.342-.252-.45a2.838 2.838 0 00-.54-.27c-.36-.12-.684-.252-.972-.396-.288-.144-.432-.456-.432-.936v-7.848c0-1.536-.414-2.772-1.242-3.708-.828-.936-1.854-1.404-3.078-1.404-1.104 0-2.094.216-2.97.648-.876.432-1.722 1.032-2.538 1.8-.024-.024-.042-.09-.054-.198-.012-.108-.018-.21-.018-.306 0-.336.03-.732.09-1.188.06-.456.09-.768.09-.936 0-.096-.018-.186-.054-.27-.036-.084-.114-.126-.234-.126-.096 0-.192.036-.288.108-.096.072-.192.132-.288.18-.624.36-1.35.702-2.178 1.026-.828.324-1.662.582-2.502.774-.216.048-.324.228-.324.54 0 .192.036.33.108.414.072.084.156.15.252.198.504.12.834.378.99.774.156.396.234.87.234 1.422v8.064c0 .48-.15.804-.45.972-.3.168-.63.3-.99.396-.24.072-.438.156-.594.252-.156.096-.234.24-.234.432 0 .144.072.258.216.342.144.084.312.126.504.126.48 0 .912-.018 1.296-.054.384-.036.756-.066 1.116-.09.36-.024.744-.036 1.152-.036.432 0 .816.012 1.152.036.336.024.684.054 1.044.09s.78.054 1.26.054c.192 0 .348-.042.468-.126.12-.084.18-.198.18-.342 0-.288-.252-.516-.756-.684-.36-.096-.678-.222-.954-.378-.276-.156-.414-.474-.414-.954v-8.568c0-.144.024-.282.072-.414.048-.132.12-.234.216-.306.456-.36.924-.636 1.404-.828.48-.192 1.044-.288 1.692-.288.792 0 1.422.276 1.89.828.468.552.702 1.308.702 2.268v7.308c0 .48-.138.792-.414.936-.276.144-.594.276-.954.396-.192.072-.36.162-.504.27-.144.108-.216.258-.216.45 0 .144.072.252.216.324.144.072.276.108.396.108.48 0 .906-.018 1.278-.054.372-.036.738-.066 1.098-.09.36-.024.744-.036 1.152-.036.432 0 .822.012 1.17.036.348.024.702.054 1.062.09.36.036.78.054 1.26.054zm18.936 0c.192 0 .348-.048.468-.144.12-.096.18-.216.18-.36 0-.336-.252-.552-.756-.648-.984-.168-1.62-.378-1.908-.63-.288-.252-.432-.666-.432-1.242v-9.216c0-.264.072-.45.216-.558.144-.108.432-.162.864-.162h3.6c.096 0 .192-.096.288-.288.096-.144.168-.33.216-.558.048-.228.072-.438.072-.63 0-.144-.048-.27-.144-.378-.096-.108-.228-.162-.396-.162h-4.212c-.144 0-.264-.03-.36-.09-.096-.06-.144-.174-.144-.342v-3.06c0-1.872.294-3.252.882-4.14.588-.888 1.386-1.332 2.394-1.332.792 0 1.446.192 1.962.576.516.384.966.768 1.35 1.152.24.288.462.522.666.702.204.18.414.27.63.27.408 0 .732-.15.972-.45.24-.3.36-.714.36-1.242 0-.84-.354-1.482-1.062-1.926-.708-.444-1.83-.666-3.366-.666-.864 0-1.794.174-2.79.522-.996.348-1.938.924-2.826 1.728-.888.804-1.626 1.878-2.214 3.222-.588 1.344-.906 3.012-.954 5.004-.384.168-.738.324-1.062.468-.324.144-.666.3-1.026.468-.048.024-.108.06-.18.108s-.108.108-.108.18c0 .168.054.36.162.576.108.216.222.336.342.36.384.024.732.042 1.044.054.312.012.588.018.828.018v10.188c0 .432-.102.744-.306.936-.204.192-.618.384-1.242.576-.216.048-.39.12-.522.216s-.198.24-.198.432c0 .144.072.258.216.342.144.084.312.126.504.126.48 0 .918-.018 1.314-.054.396-.036.774-.066 1.134-.09.36-.024.744-.036 1.152-.036.624 0 1.332.03 2.124.09s1.548.09 2.268.09zm12.06 0c.432 0 .648-.156.648-.468 0-.192-.066-.33-.198-.414-.132-.084-.33-.162-.594-.234-.648-.192-1.128-.402-1.44-.63-.312-.228-.468-.558-.468-.99v-6.336c0-1.296.24-2.166.72-2.61.48-.444 1.02-.666 1.62-.666.192 0 .402.048.63.144.228.096.45.192.666.288.216.12.432.222.648.306.216.084.42.126.612.126.336 0 .642-.138.918-.414.276-.276.504-.606.684-.99.18-.384.27-.744.27-1.08 0-.432-.174-.792-.522-1.08-.348-.288-.87-.432-1.566-.432-.552 0-1.098.144-1.638.432-.54.288-1.05.648-1.53 1.08-.48.432-.912.9-1.296 1.404-.072 0-.108-.072-.108-.216.024-.312.042-.666.054-1.062.012-.396.024-.762.036-1.098.012-.336.018-.552.018-.648 0-.24-.096-.36-.288-.36-.072 0-.18.036-.324.108-.144.072-.276.144-.396.216-.576.312-1.284.63-2.124.954-.84.324-1.62.582-2.34.774-.264.072-.396.264-.396.576 0 .168.048.294.144.378.096.084.192.15.288.198.504.12.834.366.99.738.156.372.234.834.234 1.386v8.1c0 .36-.102.642-.306.846-.204.204-.558.378-1.062.522-.24.072-.438.156-.594.252-.156.096-.234.24-.234.432 0 .144.072.258.216.342.144.084.312.126.504.126.48 0 .912-.018 1.296-.054.384-.036.762-.066 1.134-.09.372-.024.762-.036 1.17-.036.624 0 1.254.03 1.89.09.636.06 1.314.09 2.034.09zm13.068.396c1.896 0 3.474-.39 4.734-1.17 1.26-.78 2.208-1.812 2.844-3.096.636-1.284.954-2.67.954-4.158 0-1.344-.348-2.58-1.044-3.708-.696-1.128-1.626-2.034-2.79-2.718-1.164-.684-2.478-1.026-3.942-1.026-1.152 0-2.232.234-3.24.702-1.008.468-1.884 1.098-2.628 1.89-.744.792-1.332 1.692-1.764 2.7-.432 1.008-.648 2.064-.648 3.168 0 1.416.336 2.688 1.008 3.816.672 1.128 1.572 2.01 2.7 2.646 1.128.636 2.4.954 3.816.954zm.72-1.404c-.744 0-1.41-.336-1.998-1.008-.588-.672-1.056-1.536-1.404-2.592-.348-1.056-.522-2.16-.522-3.312 0-1.152.078-2.166.234-3.042.156-.876.45-1.566.882-2.07.312-.36.654-.618 1.026-.774.372-.156.786-.234 1.242-.234.816 0 1.524.312 2.124.936.6.624 1.068 1.452 1.404 2.484.336 1.032.504 2.184.504 3.456 0 .96-.054 1.854-.162 2.682-.108.828-.306 1.494-.594 1.998s-.666.876-1.134 1.116c-.468.24-1.002.36-1.602.36zm27.36 1.008c.144 0 .294-.036.45-.108.156-.072.234-.18.234-.324 0-.192-.084-.342-.252-.45a2.838 2.838 0 00-.54-.27c-.36-.12-.684-.252-.972-.396-.288-.144-.432-.456-.432-.936v-7.848c0-1.536-.414-2.772-1.242-3.708-.828-.936-1.854-1.404-3.078-1.404-1.104 0-2.094.216-2.97.648-.876.432-1.722 1.032-2.538 1.8-.024-.024-.042-.09-.054-.198-.012-.108-.018-.21-.018-.306 0-.336.03-.732.09-1.188.06-.456.09-.768.09-.936 0-.096-.018-.186-.054-.27-.036-.084-.114-.126-.234-.126-.096 0-.192.036-.288.108-.096.072-.192.132-.288.18-.624.36-1.35.702-2.178 1.026-.828.324-1.662.582-2.502.774-.216.048-.324.228-.324.54 0 .192.036.33.108.414.072.084.156.15.252.198.504.12.834.378.99.774.156.396.234.87.234 1.422v8.064c0 .48-.15.804-.45.972-.3.168-.63.3-.99.396-.24.072-.438.156-.594.252-.156.096-.234.24-.234.432 0 .144.072.258.216.342.144.084.312.126.504.126.48 0 .912-.018 1.296-.054.384-.036.756-.066 1.116-.09.36-.024.744-.036 1.152-.036.432 0 .816.012 1.152.036.336.024.684.054 1.044.09s.78.054 1.26.054c.192 0 .348-.042.468-.126.12-.084.18-.198.18-.342 0-.288-.252-.516-.756-.684-.36-.096-.678-.222-.954-.378-.276-.156-.414-.474-.414-.954v-8.568c0-.144.024-.282.072-.414.048-.132.12-.234.216-.306.456-.36.924-.636 1.404-.828.48-.192 1.044-.288 1.692-.288.792 0 1.422.276 1.89.828.468.552.702 1.308.702 2.268v7.308c0 .48-.138.792-.414.936-.276.144-.594.276-.954.396-.192.072-.36.162-.504.27-.144.108-.216.258-.216.45 0 .144.072.252.216.324.144.072.276.108.396.108.48 0 .906-.018 1.278-.054.372-.036.738-.066 1.098-.09.36-.024.744-.036 1.152-.036.432 0 .822.012 1.17.036.348.024.702.054 1.062.09.36.036.78.054 1.26.054zm8.46.396c.864 0 1.674-.162 2.43-.486.756-.324 1.368-.678 1.836-1.062.468-.384.702-.636.702-.756 0-.168-.03-.324-.09-.468-.06-.144-.15-.216-.27-.216-.048 0-.108.024-.18.072-.288.168-.606.312-.954.432s-.858.18-1.53.18c-.744 0-1.32-.27-1.728-.81-.408-.54-.612-1.338-.612-2.394v-6.912c0-.384.102-.636.306-.756.204-.12.582-.18 1.134-.18h3.42c.12 0 .222-.132.306-.396.084-.264.126-.552.126-.864 0-.168-.036-.336-.108-.504-.072-.168-.144-.252-.216-.252h-4.248c-.288 0-.51-.048-.666-.144-.156-.096-.222-.288-.198-.576l.216-1.98c.048-.24.018-.402-.09-.486-.108-.084-.258-.126-.45-.126-.144 0-.27.048-.378.144-.108.096-.246.204-.414.324-.336.312-.756.69-1.26 1.134-.504.444-1.044.876-1.62 1.296-.576.42-1.14.75-1.692.99-.072.024-.126.078-.162.162-.036.084-.054.15-.054.198 0 .216.048.438.144.666.096.228.216.342.36.342h.396c.456.024.762.084.918.18.156.096.234.24.234.432v8.316c0 1.464.372 2.58 1.116 3.348.744.768 1.836 1.152 3.276 1.152zm12.888 0c.912 0 1.752-.15 2.52-.45.768-.3 1.422-.702 1.962-1.206s.954-1.032 1.242-1.584c.288-.48.432-.888.432-1.224 0-.288-.12-.432-.36-.432-.072 0-.144.03-.216.09-.072.06-.156.126-.252.198-.528.48-1.086.858-1.674 1.134-.588.276-1.23.414-1.926.414-.96 0-1.812-.24-2.556-.72s-1.338-1.128-1.782-1.944c-.444-.816-.666-1.728-.666-2.736 0-.48.078-.81.234-.99.156-.18.402-.27.738-.27h7.308c.744 0 1.116-.432 1.116-1.296 0-.912-.234-1.734-.702-2.466-.468-.732-1.098-1.308-1.89-1.728-.792-.42-1.692-.63-2.7-.63-1.368 0-2.628.36-3.78 1.08-1.152.72-2.07 1.686-2.754 2.898-.684 1.212-1.026 2.55-1.026 4.014 0 1.512.288 2.862.864 4.05.576 1.188 1.368 2.118 2.376 2.79 1.008.672 2.172 1.008 3.492 1.008zm.252-11.124h-2.556c-.312 0-.468-.144-.468-.432-.024-.48.12-.948.432-1.404.312-.456.708-.834 1.188-1.134.48-.3.972-.45 1.476-.45.72 0 1.326.222 1.818.666.492.444.738.99.738 1.638 0 .24-.024.45-.072.63-.048.18-.132.282-.252.306-.288.072-.588.12-.9.144-.312.024-.78.036-1.404.036zM225.764 581.2c.84 0 1.644-.276 2.412-.828.768-.552 1.476-1.248 2.124-2.088.48-.624.942-1.326 1.386-2.106.444-.78.804-1.584 1.08-2.412.276-.828.414-1.626.414-2.394V554.2c0-.792.132-1.35.396-1.674.264-.324.864-.606 1.8-.846.312-.072.546-.162.702-.27.156-.108.234-.258.234-.45 0-.168-.072-.294-.216-.378-.144-.084-.336-.126-.576-.126-.576 0-1.128.012-1.656.036-.528.024-1.032.048-1.512.072-.48.024-.96.036-1.44.036-.504 0-1.02-.012-1.548-.036-.528-.024-1.062-.048-1.602-.072-.54-.024-1.11-.036-1.71-.036-.216 0-.408.042-.576.126-.168.084-.252.198-.252.342 0 .384.312.636.936.756.912.192 1.536.456 1.872.792.336.336.504.9.504 1.692v19.692c0 1.968-.192 3.432-.576 4.392-.384.96-.96 1.44-1.728 1.44-.288 0-.552-.138-.792-.414-.24-.276-.564-.654-.972-1.134-.24-.312-.492-.534-.756-.666s-.54-.198-.828-.198c-.336 0-.702.21-1.098.63-.396.42-.594.858-.594 1.314 0 1.32 1.524 1.98 4.572 1.98zm25.488-6.48c.12 0 .258-.024.414-.072.156-.048.306-.096.45-.144.624-.264 1.356-.534 2.196-.81.84-.276 1.8-.462 2.88-.558.216-.024.366-.09.45-.198.084-.108.126-.27.126-.486 0-.216-.06-.372-.18-.468-.12-.096-.276-.144-.468-.144-.12 0-.318.006-.594.018-.276.012-.486.018-.63.018-.168 0-.318-.108-.45-.324-.132-.216-.198-.612-.198-1.188v-8.352c0-.192.018-.468.054-.828.036-.36.072-.708.108-1.044.036-.336.066-.54.09-.612.048-.096.078-.186.09-.27.012-.084.018-.162.018-.234 0-.264-.168-.396-.504-.396-.048 0-.114.006-.198.018-.084.012-.162.03-.234.054-.432.12-.87.216-1.314.288-.444.072-.99.132-1.638.18-.648.048-1.5.108-2.556.18-.216 0-.408.048-.576.144-.168.096-.252.264-.252.504 0 .288.072.48.216.576.144.096.348.156.612.18.336 0 .666.072.99.216.324.144.588.354.792.63.204.276.306.642.306 1.098v6.048c0 .648-.12 1.17-.36 1.566-.24.396-.456.666-.648.81-.384.336-.774.552-1.17.648-.396.096-.822.144-1.278.144-.456-.024-.876-.168-1.26-.432s-.684-.624-.9-1.08c-.216-.456-.324-.972-.324-1.548v-6.948c0-.552.024-1.014.072-1.386.048-.372.108-.834.18-1.386.024-.336-.12-.504-.432-.504-.096 0-.192.012-.288.036-.096.024-.192.06-.288.108-.792.192-1.536.354-2.232.486-.696.132-1.524.222-2.484.27a.741.741 0 00-.378.18c-.108.096-.162.24-.162.432s.054.336.162.432a.741.741 0 00.378.18c.552.168.936.414 1.152.738.216.324.324.762.324 1.314v6.912c0 .96.174 1.8.522 2.52.348.72.828 1.284 1.44 1.692.612.408 1.302.612 2.07.612 1.104 0 2.154-.252 3.15-.756s1.866-1.164 2.61-1.98c0 .024.006.066.018.126.012.06.018.126.018.198 0 .288-.03.672-.09 1.152-.06.48-.09.852-.09 1.116 0 .216.096.324.288.324zm7.92-.576c.528-.024.96-.048 1.296-.072.336-.024.732-.036 1.188-.036.312 0 .624.006.936.018.312.012.708.03 1.188.054.12 0 .288-.03.504-.09.216-.06.324-.174.324-.342 0-.216-.084-.36-.252-.432-.168-.072-.348-.156-.54-.252-.216-.072-.372-.192-.468-.36-.096-.168-.144-.372-.144-.612 0-.216.048-.438.144-.666.096-.228.18-.39.252-.486l1.908-3.168c.072-.072.144-.072.216 0l1.944 2.916c.144.24.24.438.288.594.048.156.072.318.072.486 0 .384-.102.66-.306.828-.204.168-.45.3-.738.396-.264.072-.468.15-.612.234-.144.084-.216.234-.216.45 0 .288.276.432.828.432.672 0 1.284-.024 1.836-.072.552-.048 1.14-.072 1.764-.072.552 0 1.008.018 1.368.054.36.036.72.066 1.08.09.36.024.804.036 1.332.036.144 0 .312-.018.504-.054.192-.036.288-.138.288-.306 0-.216-.066-.372-.198-.468-.132-.096-.306-.18-.522-.252-.408-.168-.792-.408-1.152-.72-.36-.312-.696-.708-1.008-1.188l-3.168-5.04c-.096-.168-.15-.306-.162-.414-.012-.108.042-.246.162-.414l2.484-3.42c.408-.576.798-.984 1.17-1.224.372-.24.702-.408.99-.504.216-.096.39-.192.522-.288.132-.096.198-.252.198-.468 0-.168-.096-.27-.288-.306-.192-.036-.36-.054-.504-.054-.528 0-.93.024-1.206.072-.276.048-.642.072-1.098.072-.288 0-.6-.012-.936-.036-.336-.024-.744-.036-1.224-.036-.12 0-.288.024-.504.072-.216.048-.324.168-.324.36 0 .192.078.33.234.414.156.084.33.162.522.234.384.144.576.396.576.756.024.192-.006.408-.09.648-.084.24-.186.456-.306.648l-1.332 2.196c-.12.216-.228.216-.324 0l-1.656-2.412c-.144-.216-.258-.426-.342-.63-.084-.204-.126-.366-.126-.486 0-.24.102-.414.306-.522.204-.108.402-.198.594-.27.192-.072.366-.144.522-.216.156-.072.234-.204.234-.396 0-.192-.102-.312-.306-.36-.204-.048-.378-.072-.522-.072-.672 0-1.194.024-1.566.072-.372.048-.87.072-1.494.072-.552 0-.972-.012-1.26-.036-.288-.024-.57-.054-.846-.09s-.678-.054-1.206-.054c-.144 0-.324.018-.54.054-.216.036-.324.15-.324.342 0 .192.066.342.198.45.132.108.306.198.522.27.384.12.69.318.918.594.228.276.498.654.81 1.134l2.808 4.14c.096.168.15.312.162.432.012.12-.066.276-.234.468l-3.132 4.32c-.48.648-.876 1.098-1.188 1.35-.312.252-.612.426-.9.522-.24.072-.426.162-.558.27-.132.108-.198.258-.198.45 0 .168.096.276.288.324.192.048.372.072.54.072zm23.724.36c.864 0 1.674-.162 2.43-.486.756-.324 1.368-.678 1.836-1.062.468-.384.702-.636.702-.756 0-.168-.03-.324-.09-.468-.06-.144-.15-.216-.27-.216-.048 0-.108.024-.18.072-.288.168-.606.312-.954.432s-.858.18-1.53.18c-.744 0-1.32-.27-1.728-.81-.408-.54-.612-1.338-.612-2.394v-6.912c0-.384.102-.636.306-.756.204-.12.582-.18 1.134-.18h3.42c.12 0 .222-.132.306-.396.084-.264.126-.552.126-.864 0-.168-.036-.336-.108-.504-.072-.168-.144-.252-.216-.252h-4.248c-.288 0-.51-.048-.666-.144-.156-.096-.222-.288-.198-.576l.216-1.98c.048-.24.018-.402-.09-.486-.108-.084-.258-.126-.45-.126-.144 0-.27.048-.378.144-.108.096-.246.204-.414.324-.336.312-.756.69-1.26 1.134-.504.444-1.044.876-1.62 1.296-.576.42-1.14.75-1.692.99-.072.024-.126.078-.162.162-.036.084-.054.15-.054.198 0 .216.048.438.144.666.096.228.216.342.36.342h.396c.456.024.762.084.918.18.156.096.234.24.234.432v8.316c0 1.464.372 2.58 1.116 3.348.744.768 1.836 1.152 3.276 1.152zm17.244 0c.48 0 .966-.114 1.458-.342.492-.228.954-.558 1.386-.99.384-.384.576-.708.576-.972 0-.12-.042-.222-.126-.306-.084-.084-.186-.126-.306-.126-.072 0-.156.048-.252.144-.312.288-.72.432-1.224.432-.336 0-.618-.18-.846-.54-.228-.36-.33-.804-.306-1.332l.18-7.704c.024-1.224-.312-2.214-1.008-2.97-.696-.756-1.62-1.134-2.772-1.134-.504 0-1.098.12-1.782.36-.684.24-1.386.558-2.106.954-.72.396-1.38.846-1.98 1.35-.552.456-.954.882-1.206 1.278s-.378.786-.378 1.17c0 .168.048.312.144.432.096.12.228.18.396.18.312 0 .696-.084 1.152-.252.456-.168.864-.36 1.224-.576.36-.216.54-.396.54-.54 0-.144-.006-.306-.018-.486-.012-.18-.018-.33-.018-.45 0-.144.018-.294.054-.45.036-.156.102-.282.198-.378.192-.192.456-.348.792-.468.336-.12.66-.18.972-.18.6 0 1.05.204 1.35.612.3.408.438.948.414 1.62l-.072 2.124c0 .456-.054.768-.162.936-.108.168-.402.348-.882.54l-3.348 1.44c-.96.408-1.68.87-2.16 1.386-.48.516-.72 1.182-.72 1.998 0 .528.156 1.044.468 1.548.312.504.726.912 1.242 1.224.516.312 1.062.468 1.638.468.744 0 1.446-.156 2.106-.468.66-.312 1.386-.816 2.178-1.512h.108c.792 1.32 1.824 1.98 3.096 1.98zm-5.508-2.16c-.336 0-.66-.138-.972-.414-.312-.276-.468-.738-.468-1.386 0-.648.192-1.176.576-1.584.384-.408 1.02-.792 1.908-1.152.12-.072.228-.114.324-.126.096-.012.168-.018.216-.018.096 0 .18.042.252.126.072.084.096.246.072.486l-.072 2.304c-.024.312-.066.552-.126.72-.06.168-.138.312-.234.432-.168.192-.372.342-.612.45-.24.108-.528.162-.864.162zM440.964 583.72c.144 0 .288-.042.432-.126.144-.084.216-.198.216-.342 0-.192-.072-.336-.216-.432-.144-.096-.336-.18-.576-.252-.36-.096-.684-.204-.972-.324-.288-.12-.528-.282-.72-.486-.192-.204-.288-.462-.288-.774v-6.228c0-.096.006-.228.018-.396.012-.168.03-.318.054-.45s.048-.198.072-.198c.288.168.63.318 1.026.45s.792.24 1.188.324c.396.084.738.126 1.026.126 1.152 0 2.226-.252 3.222-.756s1.878-1.176 2.646-2.016c.768-.84 1.362-1.782 1.782-2.826.42-1.044.63-2.118.63-3.222 0-1.152-.24-2.262-.72-3.33s-1.17-1.944-2.07-2.628c-.9-.684-1.986-1.026-3.258-1.026-.744 0-1.518.156-2.322.468-.804.312-1.512.666-2.124 1.062-.612.396-1.038.714-1.278.954-.048-.024-.072-.156-.072-.396 0-.312.03-.69.09-1.134.06-.444.09-.762.09-.954 0-.12-.018-.222-.054-.306-.036-.084-.114-.126-.234-.126-.072 0-.144.03-.216.09-.072.06-.144.102-.216.126-.648.288-1.404.582-2.268.882-.864.3-1.728.546-2.592.738-.096.024-.174.078-.234.162-.06.084-.09.21-.09.378 0 .192.03.33.09.414.06.084.15.15.27.198.36.048.654.21.882.486.228.276.402.576.522.9.12.324.18.606.18.846V581.2c0 .408-.126.702-.378.882-.252.18-.606.342-1.062.486-.216.072-.408.156-.576.252-.168.096-.252.24-.252.432 0 .168.084.288.252.36.168.072.324.108.468.108.48 0 .912-.018 1.296-.054.384-.036.756-.066 1.116-.09.36-.024.744-.036 1.152-.036.624 0 1.278.03 1.962.09.684.06 1.386.09 2.106.09zm1.368-10.62c-.648 0-1.236-.234-1.764-.702-.528-.468-.948-1.056-1.26-1.764-.312-.708-.468-1.41-.468-2.106 0-.216.006-.576.018-1.08.012-.504.024-1.062.036-1.674.012-.612.018-1.188.018-1.728v-1.314c0-.192.168-.426.504-.702.336-.276.756-.516 1.26-.72.504-.204.996-.306 1.476-.306.336 0 .726.066 1.17.198.444.132.882.402 1.314.81.432.408.792 1.014 1.08 1.818.288.804.432 1.866.432 3.186 0 1.152-.138 2.124-.414 2.916-.276.792-.624 1.416-1.044 1.872-.42.456-.846.786-1.278.99-.432.204-.792.306-1.08.306zm16.74 1.404c.912 0 1.752-.15 2.52-.45.768-.3 1.422-.702 1.962-1.206s.954-1.032 1.242-1.584c.288-.48.432-.888.432-1.224 0-.288-.12-.432-.36-.432-.072 0-.144.03-.216.09-.072.06-.156.126-.252.198-.528.48-1.086.858-1.674 1.134-.588.276-1.23.414-1.926.414-.96 0-1.812-.24-2.556-.72s-1.338-1.128-1.782-1.944c-.444-.816-.666-1.728-.666-2.736 0-.48.078-.81.234-.99.156-.18.402-.27.738-.27h7.308c.744 0 1.116-.432 1.116-1.296 0-.912-.234-1.734-.702-2.466-.468-.732-1.098-1.308-1.89-1.728-.792-.42-1.692-.63-2.7-.63-1.368 0-2.628.36-3.78 1.08-1.152.72-2.07 1.686-2.754 2.898-.684 1.212-1.026 2.55-1.026 4.014 0 1.512.288 2.862.864 4.05.576 1.188 1.368 2.118 2.376 2.79 1.008.672 2.172 1.008 3.492 1.008zm.252-11.124h-2.556c-.312 0-.468-.144-.468-.432-.024-.48.12-.948.432-1.404.312-.456.708-.834 1.188-1.134.48-.3.972-.45 1.476-.45.72 0 1.326.222 1.818.666.492.444.738.99.738 1.638 0 .24-.024.45-.072.63-.048.18-.132.282-.252.306-.288.072-.588.12-.9.144-.312.024-.78.036-1.404.036zm14.256 11.124c.936 0 1.788-.168 2.556-.504.768-.336 1.446-.768 2.034-1.296.588-.528 1.014-1.032 1.278-1.512.144-.216.24-.414.288-.594.048-.18.072-.318.072-.414 0-.384-.132-.576-.396-.576-.096 0-.186.03-.27.09-.084.06-.174.126-.27.198-.576.504-1.122.87-1.638 1.098-.516.228-1.134.342-1.854.342-.984 0-1.848-.24-2.592-.72s-1.32-1.152-1.728-2.016c-.408-.864-.612-1.884-.612-3.06 0-1.728.276-3.024.828-3.888.552-.864 1.32-1.296 2.304-1.296.456 0 1.008.168 1.656.504.648.336 1.272.744 1.872 1.224.168.144.336.276.504.396.168.12.348.18.54.18.192 0 .42-.096.684-.288.264-.192.492-.42.684-.684.192-.264.288-.48.288-.648 0-.216-.12-.432-.36-.648-1.248-1.152-2.784-1.728-4.608-1.728-1.464 0-2.79.372-3.978 1.116-1.188.744-2.142 1.746-2.862 3.006-.72 1.26-1.08 2.67-1.08 4.23 0 1.416.294 2.694.882 3.834.588 1.14 1.386 2.034 2.394 2.682 1.008.648 2.136.972 3.384.972zm14.652 0c.864 0 1.674-.162 2.43-.486.756-.324 1.368-.678 1.836-1.062.468-.384.702-.636.702-.756 0-.168-.03-.324-.09-.468-.06-.144-.15-.216-.27-.216-.048 0-.108.024-.18.072-.288.168-.606.312-.954.432s-.858.18-1.53.18c-.744 0-1.32-.27-1.728-.81-.408-.54-.612-1.338-.612-2.394v-6.912c0-.384.102-.636.306-.756.204-.12.582-.18 1.134-.18h3.42c.12 0 .222-.132.306-.396.084-.264.126-.552.126-.864 0-.168-.036-.336-.108-.504-.072-.168-.144-.252-.216-.252h-4.248c-.288 0-.51-.048-.666-.144-.156-.096-.222-.288-.198-.576l.216-1.98c.048-.24.018-.402-.09-.486-.108-.084-.258-.126-.45-.126-.144 0-.27.048-.378.144-.108.096-.246.204-.414.324-.336.312-.756.69-1.26 1.134-.504.444-1.044.876-1.62 1.296-.576.42-1.14.75-1.692.99-.072.024-.126.078-.162.162-.036.084-.054.15-.054.198 0 .216.048.438.144.666.096.228.216.342.36.342h.396c.456.024.762.084.918.18.156.096.234.24.234.432v8.316c0 1.464.372 2.58 1.116 3.348.744.768 1.836 1.152 3.276 1.152zm17.964.216c.12 0 .258-.024.414-.072.156-.048.306-.096.45-.144.624-.264 1.356-.534 2.196-.81.84-.276 1.8-.462 2.88-.558.216-.024.366-.09.45-.198.084-.108.126-.27.126-.486 0-.216-.06-.372-.18-.468-.12-.096-.276-.144-.468-.144-.12 0-.318.006-.594.018-.276.012-.486.018-.63.018-.168 0-.318-.108-.45-.324-.132-.216-.198-.612-.198-1.188v-8.352c0-.192.018-.468.054-.828.036-.36.072-.708.108-1.044.036-.336.066-.54.09-.612.048-.096.078-.186.09-.27.012-.084.018-.162.018-.234 0-.264-.168-.396-.504-.396-.048 0-.114.006-.198.018-.084.012-.162.03-.234.054-.432.12-.87.216-1.314.288-.444.072-.99.132-1.638.18-.648.048-1.5.108-2.556.18-.216 0-.408.048-.576.144-.168.096-.252.264-.252.504 0 .288.072.48.216.576.144.096.348.156.612.18.336 0 .666.072.99.216.324.144.588.354.792.63.204.276.306.642.306 1.098v6.048c0 .648-.12 1.17-.36 1.566-.24.396-.456.666-.648.81-.384.336-.774.552-1.17.648-.396.096-.822.144-1.278.144-.456-.024-.876-.168-1.26-.432s-.684-.624-.9-1.08c-.216-.456-.324-.972-.324-1.548v-6.948c0-.552.024-1.014.072-1.386.048-.372.108-.834.18-1.386.024-.336-.12-.504-.432-.504-.096 0-.192.012-.288.036-.096.024-.192.06-.288.108-.792.192-1.536.354-2.232.486-.696.132-1.524.222-2.484.27a.741.741 0 00-.378.18c-.108.096-.162.24-.162.432s.054.336.162.432a.741.741 0 00.378.18c.552.168.936.414 1.152.738.216.324.324.762.324 1.314v6.912c0 .96.174 1.8.522 2.52.348.72.828 1.284 1.44 1.692.612.408 1.302.612 2.07.612 1.104 0 2.154-.252 3.15-.756s1.866-1.164 2.61-1.98c0 .024.006.066.018.126.012.06.018.126.018.198 0 .288-.03.672-.09 1.152-.06.48-.09.852-.09 1.116 0 .216.096.324.288.324zm12.528-.216c1.848 0 3.276-.426 4.284-1.278 1.008-.852 1.512-2.01 1.512-3.474 0-1.224-.336-2.202-1.008-2.934-.672-.732-1.764-1.506-3.276-2.322-.792-.432-1.398-.852-1.818-1.26-.42-.408-.63-.864-.63-1.368 0-.624.222-1.11.666-1.458.444-.348.942-.522 1.494-.522.624 0 1.176.228 1.656.684.48.456.876 1.128 1.188 2.016.048.096.156.192.324.288.168.096.336.144.504.144.36 0 .54-.108.54-.324 0-.696-.06-1.362-.18-1.998-.12-.636-.276-1.074-.468-1.314-.24-.168-.666-.336-1.278-.504-.612-.168-1.302-.252-2.07-.252-1.08 0-2.034.192-2.862.576-.828.384-1.47.912-1.926 1.584-.456.672-.684 1.452-.684 2.34 0 .792.168 1.482.504 2.07.336.588.798 1.11 1.386 1.566.588.456 1.254.888 1.998 1.296.816.456 1.458.9 1.926 1.332.468.432.702.972.702 1.62 0 .552-.192 1.038-.576 1.458-.384.42-.912.63-1.584.63-.792 0-1.5-.318-2.124-.954-.624-.636-1.14-1.482-1.548-2.538-.048-.12-.132-.228-.252-.324s-.264-.144-.432-.144c-.408 0-.612.144-.612.432 0 .696.042 1.404.126 2.124.084.72.21 1.248.378 1.584.576.408 1.218.714 1.926.918.708.204 1.446.306 2.214.306z" fill="#C5C4C2" fill-rule="nonzero"/></g></svg>