<svg width="868" height="820" xmlns="http://www.w3.org/2000/svg"><g fill="none" fill-rule="evenodd"><g fill="#C5C4C2"><path d="M430 107h12v611h-12z"/><path d="M379 665h114v12H379z"/><path d="M379 660h8v22h-8zM485 660h8v22h-8zM405 706h62v12h-62z"/><path d="M405 701h8v22h-8zM459 701h8v22h-8z"/><g><path d="M379 144h114v12H379z"/><path d="M379 139h8v22h-8zM485 139h8v22h-8z"/></g><g><path d="M405 103h62v12h-62z"/><path d="M405 98h8v22h-8zM459 98h8v22h-8z"/></g></g><g fill="#C5C4C2"><path d="M739.5 404.5v12h-611v-12z"/><path d="M181.5 353.5v114h-12v-114z"/><path d="M186.5 353.5v8h-22v-8zM186.5 459.5v8h-22v-8zM140.5 379.5v62h-12v-62z"/><path d="M145.5 379.5v8h-22v-8zM145.5 433.5v8h-22v-8z"/><g><path d="M702.5 353.5v114h-12v-114z"/><path d="M707.5 353.5v8h-22v-8zM707.5 459.5v8h-22v-8z"/></g><g><path d="M743.5 379.5v62h-12v-62z"/><path d="M748.5 379.5v8h-22v-8zM748.5 433.5v8h-22v-8z"/></g></g><circle stroke="#C5C4C2" stroke-width="12" cx="436" cy="410.5" r="100"/><path d="M533.06 570.55c.8067 0 2.1267-.055 3.96-.165 1.8333-.11 3.795-.2017 5.885-.275 2.09-.0733 3.9417-.11 5.555-.11 3.08 0 6.3617.0367 9.845.11 3.4833.0733 6.9483.1283 10.395.165 3.4467.0367 6.71.0917 9.79.165 3.08.0733 5.72.11 7.92.11.66 0 1.1-.2017 1.32-.605.22-.4033.3667-.8617.44-1.375.22-1.6867.4583-3.245.715-4.675.2567-1.43.5867-2.915.99-4.455s.8983-3.3733 1.485-5.5c0-.22.0367-.5133.11-.88s.11-.5867.11-.66c0-.5133-.11-1.0083-.33-1.485-.22-.4767-.5867-.715-1.1-.715-.44 0-.88.2933-1.32.88-.44.5867-.9167 1.43-1.43 2.53-.8067 1.76-1.65 3.3-2.53 4.62-.88 1.32-1.98 2.5667-3.3 3.74-.88.88-2.0167 1.6133-3.41 2.2-1.3933.5867-2.9333.88-4.62.88h-11.99c-2.64 0-4.4367-.495-5.39-1.485-.9533-.99-1.43-2.5483-1.43-4.675v-50.27c0-2.1267.6783-3.6117 2.035-4.455 1.3567-.8433 3.465-1.6317 6.325-2.365.88-.22 1.5583-.495 2.035-.825.4767-.33.715-.7883.715-1.375 0-.5133-.22-.8983-.66-1.155-.44-.2567-1.0267-.385-1.76-.385-1.6867 0-3.4283.0367-5.225.11-1.7967.0733-3.5567.1467-5.28.22s-3.4283.11-5.115.11c-1.54 0-3.08-.0367-4.62-.11s-3.135-.1467-4.785-.22c-1.65-.0733-3.3917-.11-5.225-.11-.66 0-1.2467.1283-1.76.385-.5133.2567-.77.605-.77 1.045 0 1.1733.9533 1.9433 2.86 2.31 1.9067.3667 3.355.7883 4.345 1.265.99.4767 1.6867 1.155 2.09 2.035.4033.88.605 2.1633.605 3.85v50.6c0 2.2733-.6233 3.905-1.87 4.895-1.2467.99-3.19 1.815-5.83 2.475-.5133.1467-1.0267.385-1.54.715-.5133.33-.77.7883-.77 1.375 0 .3667.22.715.66 1.045.44.33 1.0633.495 1.87.495zM563.13 321.54c3.6667 0 6.985-.33 9.955-.99 2.97-.66 5.5733-1.4483 7.81-2.365 2.2367-.9167 4.0883-1.7417 5.555-2.475 1.4667-.7333 2.4567-1.1367 2.97-1.21.8067-.1467 1.3383-.4583 1.595-.935.2567-.4767.385-.935.385-1.375 0-.3667-.1283-.7333-.385-1.1a21.4868 21.4868 0 00-.825-1.1 29.418 29.418 0 00-.825-.99c-.2567-.2933-.385-.6233-.385-.99v-3.41c0-1.3933.055-2.7133.165-3.96.11-1.2467.3117-2.6767.605-4.29.22-1.4667.6783-2.6033 1.375-3.41.6967-.8067 2.035-1.4667 4.015-1.98.44-.0733.9167-.2933 1.43-.66s.77-.8433.77-1.43c0-.66-.2383-1.1183-.715-1.375-.4767-.2567-.935-.385-1.375-.385-2.1267 0-4.1983.0733-6.215.22a84.1406 84.1406 0 01-6.105.22c-1.6867 0-3.4283-.0367-5.225-.11l-5.39-.22c-1.7967-.0733-3.5383-.11-5.225-.11-.44 0-.935.1467-1.485.44s-.825.7333-.825 1.32c0 .5867.2933 1.0817.88 1.485s1.1367.6417 1.65.715c.66.0733 1.5217.2017 2.585.385 1.0633.1833 2.1083.4767 3.135.88s1.87.8617 2.53 1.375c.7333.3667 1.2283.8617 1.485 1.485.2567.6233.385 1.3383.385 2.145 0 .66-.0183 1.5033-.055 2.53l-.11 3.08c-.0367 1.0267-.055 1.87-.055 2.53-.0733 1.76-.3667 3.3-.88 4.62-.5133 1.32-1.1733 2.31-1.98 2.97-.66.5867-1.7417 1.265-3.245 2.035-1.5033.77-3.575 1.155-6.215 1.155-3.6667 0-6.9667-.77-9.9-2.31s-5.4633-3.7583-7.59-6.655c-2.1267-2.8967-3.7767-6.38-4.95-10.45-1.1733-4.07-1.76-8.635-1.76-13.695 0-4.0333.5867-7.9017 1.76-11.605 1.1733-3.7033 2.86-7.0217 5.06-9.955 2.2-2.9333 4.9133-5.225 8.14-6.875 3.2267-1.65 6.8567-2.475 10.89-2.475 2.86 0 5.28.2933 7.26.88 1.98.5867 3.6117 1.3017 4.895 2.145 1.2833.8433 2.2917 1.6317 3.025 2.365 1.1 1.1733 2.0167 2.4017 2.75 3.685a43.3781 43.3781 0 011.98 3.905c.2933.66.6233 1.265.99 1.815s.9533.825 1.76.825c.5133 0 .935-.22 1.265-.66.33-.44.495-.9533.495-1.54 0-1.6133-.11-3.52-.33-5.72-.22-2.2-.5133-4.51-.88-6.93-.0733-.5867-.2567-1.045-.55-1.375-.2933-.33-.6967-.605-1.21-.825-1.0267-.44-2.475-.88-4.345-1.32-1.87-.44-3.905-.8433-6.105-1.21-2.2-.3667-4.3267-.6783-6.38-.935-2.0533-.2567-3.7767-.385-5.17-.385-6.0867 0-11.6417 1.045-16.665 3.135-5.0233 2.09-9.3683 4.9133-13.035 8.47-3.6667 3.5567-6.5083 7.645-8.525 12.265-2.0167 4.62-3.025 9.5333-3.025 14.74 0 5.28 1.0083 10.12 3.025 14.52s4.8033 8.195 8.36 11.385c3.5567 3.19 7.645 5.665 12.265 7.425 4.62 1.76 9.5333 2.64 14.74 2.64zM270.64 573.55c2.1267 0 4.235-.11 6.325-.33 2.09-.22 4.235-.33 6.435-.33 2.2 0 4.2167.055 6.05.165 1.8333.11 3.5933.165 5.28.165.88 0 1.5583-.1283 2.035-.385.4767-.2567.715-.605.715-1.045 0-1.0267-.99-1.7967-2.97-2.31-2.64-.66-4.4917-1.5583-5.555-2.695-1.0633-1.1367-1.4117-2.695-1.045-4.675.1467-.8067.385-1.76.715-2.86.33-1.1.6967-2.2917 1.1-3.575.4033-1.2833.8067-2.53 1.21-3.74.4033-1.21.7517-2.2917 1.045-3.245.1467-.66.3667-1.155.66-1.485.2933-.33.6967-.495 1.21-.495h19.8c.8067 0 1.3567.1283 1.65.385.2933.2567.5133.6783.66 1.265.5133 1.54 1.0083 3.245 1.485 5.115.4767 1.87.935 3.6667 1.375 5.39.44 1.7233.77 3.2083.99 4.455.2933 1.76-.1467 3.0983-1.32 4.015-1.1733.9167-3.08 1.595-5.72 2.035-.8067.1467-1.5033.4217-2.09.825-.5867.4033-.88.8983-.88 1.485 0 .5133.275.8983.825 1.155.55.2567 1.1917.385 1.925.385 1.2467 0 2.7683-.0367 4.565-.11l5.39-.22c1.7967-.0733 3.4283-.11 4.895-.11 1.6867 0 3.5933.055 5.72.165 2.1267.11 4.1983.2017 6.215.275 2.0167.0733 3.685.11 5.005.11.7333 0 1.3383-.11 1.815-.33.4767-.22.715-.55.715-.99 0-.66-.2567-1.1733-.77-1.54-.5133-.3667-1.2467-.66-2.2-.88-1.4667-.3667-2.805-.8617-4.015-1.485-1.21-.6233-2.31-1.5217-3.3-2.695-.99-1.1733-1.815-2.75-2.475-4.73l-1.9097-5.7291-.673-2.019-1.7623-5.2869c-1.5767-4.73-3.2083-9.68-4.895-14.85a8697.3675 8697.3675 0 01-5.115-15.73 1276.4231 1276.4231 0 01-5.005-15.785 34.5601 34.5601 0 00-.44-1.43c-.1467-.44-.33-.88-.55-1.32-.22-.3667-.44-.5317-.66-.495-.22.0367-.44.1283-.66.275-.3667.44-.9167 1.0633-1.65 1.87-.7333.8067-1.6133 1.4667-2.64 1.98-1.1733.44-2.2367.8067-3.19 1.1-.9533.2933-1.98.5867-3.08.88-.22.5867-.4767 1.5033-.77 2.75s-.8433 3.0067-1.65 5.28c-1.6133 4.5467-3.2083 8.8733-4.785 12.98-1.5767 4.1067-3.135 8.14-4.675 12.1a452.7009 452.7009 0 01-4.84 11.935 9353.5528 9353.5528 0 01-5.28 12.485c-.9533 2.1267-2.2183 3.795-3.795 5.005-1.5767 1.21-3.4283 2.1083-5.555 2.695-.88.2933-1.595.6233-2.145.99s-.825.88-.825 1.54c0 .5867.2933 1.0083.88 1.265.5867.2567 1.32.385 2.2.385zm41.47-31.9h-15.29c-.5867 0-1.0817-.0733-1.485-.22s-.605-.4033-.605-.77c0-.22.0733-.5133.22-.88l9.24-25.52c.3667-.9533.6233-1.43.77-1.43.22 0 .4767.5133.77 1.54l7.7 25.41.165.66c.0367.1467.055.33.055.55 0 .44-.5133.66-1.54.66zM270.64 322.55c2.1267 0 4.235-.11 6.325-.33 2.09-.22 4.235-.33 6.435-.33 2.2 0 4.2167.055 6.05.165 1.8333.11 3.5933.165 5.28.165.88 0 1.5583-.1283 2.035-.385.4767-.2567.715-.605.715-1.045 0-1.0267-.99-1.7967-2.97-2.31-2.64-.66-4.4917-1.5583-5.555-2.695-1.0633-1.1367-1.4117-2.695-1.045-4.675.1467-.8067.385-1.76.715-2.86.33-1.1.6967-2.2917 1.1-3.575.4033-1.2833.8067-2.53 1.21-3.74.4033-1.21.7517-2.2917 1.045-3.245.1467-.66.3667-1.155.66-1.485.2933-.33.6967-.495 1.21-.495h19.8c.8067 0 1.3567.1283 1.65.385.2933.2567.5133.6783.66 1.265.5133 1.54 1.0083 3.245 1.485 5.115.4767 1.87.935 3.6667 1.375 5.39.44 1.7233.77 3.2083.99 4.455.2933 1.76-.1467 3.0983-1.32 4.015-1.1733.9167-3.08 1.595-5.72 2.035-.8067.1467-1.5033.4217-2.09.825-.5867.4033-.88.8983-.88 1.485 0 .5133.275.8983.825 1.155.55.2567 1.1917.385 1.925.385 1.2467 0 2.7683-.0367 4.565-.11l5.39-.22c1.7967-.0733 3.4283-.11 4.895-.11 1.6867 0 3.5933.055 5.72.165 2.1267.11 4.1983.2017 6.215.275 2.0167.0733 3.685.11 5.005.11.7333 0 1.3383-.11 1.815-.33.4767-.22.715-.55.715-.99 0-.66-.2567-1.1733-.77-1.54-.5133-.3667-1.2467-.66-2.2-.88-1.4667-.3667-2.805-.8617-4.015-1.485-1.21-.6233-2.31-1.5217-3.3-2.695-.99-1.1733-1.815-2.75-2.475-4.73l-1.9097-5.7291-.673-2.019-1.7623-5.2869c-1.5767-4.73-3.2083-9.68-4.895-14.85a8697.3675 8697.3675 0 01-5.115-15.73 1276.4231 1276.4231 0 01-5.005-15.785 34.5601 34.5601 0 00-.44-1.43c-.1467-.44-.33-.88-.55-1.32-.22-.3667-.44-.5317-.66-.495-.22.0367-.44.1283-.66.275-.3667.44-.9167 1.0633-1.65 1.87-.7333.8067-1.6133 1.4667-2.64 1.98-1.1733.44-2.2367.8067-3.19 1.1-.9533.2933-1.98.5867-3.08.88-.22.5867-.4767 1.5033-.77 2.75s-.8433 3.0067-1.65 5.28c-1.6133 4.5467-3.2083 8.8733-4.785 12.98-1.5767 4.1067-3.135 8.14-4.675 12.1a452.7009 452.7009 0 01-4.84 11.935 9353.5528 9353.5528 0 01-5.28 12.485c-.9533 2.1267-2.2183 3.795-3.795 5.005-1.5767 1.21-3.4283 2.1083-5.555 2.695-.88.2933-1.595.6233-2.145.99s-.825.88-.825 1.54c0 .5867.2933 1.0083.88 1.265.5867.2567 1.32.385 2.2.385zm41.47-31.9h-15.29c-.5867 0-1.0817-.0733-1.485-.22s-.605-.4033-.605-.77c0-.22.0733-.5133.22-.88l9.24-25.52c.3667-.9533.6233-1.43.77-1.43.22 0 .4767.5133.77 1.54l7.7 25.41.165.66c.0367.1467.055.33.055.55 0 .44-.5133.66-1.54.66z" fill="#C5C4C2" fill-rule="nonzero"/></g></svg>