<svg width="988" height="976" xmlns="http://www.w3.org/2000/svg"><g fill="none" fill-rule="evenodd"><path stroke="#C5C4C2" stroke-width="12" d="M919.8497 73.9487l-841.2015.0996L89.5697 906.865l768.684-768.684"/><g fill="#C5C4C2" fill-rule="nonzero"><path d="M59.114 974.1556c1.2445-1.2445 2.3853-2.4631 3.4224-3.6558a221.3834 221.3834 0 013.0724-3.4613c1.0111-1.1148 2.113-2.2686 3.3057-3.4613a97.1207 97.1207 0 013.3446-3.189c1.1408-1.037 2.3205-2.113 3.539-3.228 1.2187-1.1148 2.4502-2.2945 3.6947-3.539.4148-.4149.6741-.8556.7778-1.3223.1037-.4667 0-.8556-.3111-1.1667-.363-.363-.8297-.4667-1.4-.3112-.5705.1556-1.1409.363-1.7113.6223-2.5927 1.452-4.5243 2.2168-5.7947 2.2946-1.2704.0777-2.6576-.6353-4.1613-2.139l-5.2892-5.2892c-.0518-.0519-.013-.2463.1167-.5834.1296-.337.2722-.6352.4278-.8945.3111-.4148.5963-.7778.8556-1.0889.2592-.3111.6482-.726 1.1667-1.2445a63.4023 63.4023 0 011.9057-1.8279 63.4024 63.4024 0 001.9056-1.8278c.1556-.1556.0908-.6353-.1944-1.439-.2852-.8038-.6482-1.6594-1.089-2.5668-.4407-.9075-.8685-1.5686-1.2834-1.9834-.4148-.4149-.9334-.3112-1.5556.311-.8297.9335-1.5686 1.7502-2.2168 2.4502-.6482.7-1.3612 1.439-2.139 2.2168l-1.3223 1.3223c-.4148.4148-.9593.9074-1.6334 1.4778-.2593.2593-.5445.2334-.8556-.0777l-8.8671-8.8672c-1.815-1.8149-3.2798-3.1242-4.3947-3.928-1.1149-.8037-2.113-.7648-2.9946.1167-.5185.5186-1.3741 1.5557-2.5668 3.1113-1.1926 1.5556-2.1001 3.215-2.7223 4.978-.2593.6741-.2982 1.2316-.1167 1.6723.1815.4408.6611 1.05 1.439 1.828l10.2671 10.2671c.1037.1037.1426.2982.1167.5834-.026.2852-.1167.5055-.2722.6611l-11.745 11.745c-.2593.2593-.5186.3371-.7779.2334-.2593-.1037-.4408-.363-.5445-.7778l-10.345-48.6136c0-.3111-.1814-.6741-.5444-1.089-.363-.4148-.7519-.4148-1.1667 0l-.9334.9334c-.5186.5186-.8038 1.3482-.8556 2.489-.0519 1.1408.0518 2.2039.3111 3.189l10.5783 49.936c.1556.674.2593 1.2704.3112 1.789.0518.5185.1037 1.063.1555 1.6334.0519.5704.1556 1.4.3111 2.489.1038.4148.2334.7.389.8556.1555.1555.4148.2074.7778.1555.363-.0518.674-.2074.9334-.4666a715.6274 715.6274 0 006.2614-6.6504 571.2849 571.2849 0 005.9114-6.4559c1.8927-2.1 3.7206-4.0317 5.4836-5.7947.2074-.2074.5315-.4019.9723-.5834.4407-.1815.7908-.1426 1.05.1167l5.367 5.367c1.4519 1.4519 2.126 2.8779 2.0223 4.278-.1037 1.4-1.063 3.3705-2.878 5.9114-.2592.4666-.4666.9852-.6222 1.5556-.1555.5704-.026 1.063.389 1.4778.363.363.8296.4408 1.4.2334.5704-.2074 1.0112-.4667 1.3223-.7778zM565.5057 572.2633c2.852-2.852 5.1854-6.067 7.0004-9.645 1.8149-3.5779 2.9816-7.2595 3.5001-11.045.5186-3.7853.2723-7.454-.7389-11.006-1.0112-3.552-2.9427-6.754-5.7947-9.606-2.4372-2.4372-5.1466-3.98-8.1282-4.6281-2.9817-.6482-5.9763-.5056-8.9838.4278-3.0076.9334-5.7818 2.6705-8.3227 5.2114-.2074.2074-.376.2463-.5055.1167-.1297-.1297-.1426-.2982-.039-.5056 1.5557-3.1113 2.3854-6.041 2.489-8.7894.1038-2.7483-.2592-5.1854-1.0889-7.3115-.8296-2.126-1.8408-3.7853-3.0335-4.978-1.8667-1.8667-4.0057-2.9687-6.417-3.3057-2.4112-.337-4.8224-.0519-7.2337.8556-2.4112.9074-4.5761 2.3205-6.4947 4.2391-2.8002 2.8001-4.7706 5.5744-5.9114 8.3226-1.1408 2.7483-1.763 5.3151-1.8668 7.7004-.1037 2.3853.1037 4.4077.6223 6.067.5185 1.6594 1.037 2.7483 1.5556 3.2668.4148.4149.9982.6353 1.75.6612.752.026 1.2835-.1167 1.5946-.4278.2593-.2593.2722-.9204.0389-1.9834-.2334-1.063-.4148-2.3853-.5445-3.967-.1296-1.5815.0519-3.2667.5445-5.0557.4926-1.789 1.5686-3.5132 3.228-5.1725 1.9186-1.9186 4.1613-2.8131 6.728-2.6835 2.5669.1297 4.7577 1.102 6.5726 2.9168 1.3482 1.3483 2.2946 2.839 2.839 4.4725.5445 1.6334.8038 3.3446.7779 5.1336-.026 1.789-.2334 3.6039-.6223 5.4447a58.858 58.858 0 01-1.439 5.4836c-.311.9334-.4407 1.9705-.3889 3.1113.0519 1.1408.389 2.2816 1.0112 3.4224.3111.4148.8037.5185 1.4779.3111.674-.2074 1.0889-.5963 1.2445-1.1667.2592-.8815.6481-1.9186 1.1667-3.1113.5185-1.1926 1.3223-2.3334 2.4112-3.4224 1.763-1.763 3.7595-2.7223 5.9892-2.878 2.2298-.1555 4.5114.3112 6.8448 1.4002 2.3335 1.089 4.5373 2.6705 6.6115 4.7446 2.2816 2.2816 3.7983 4.7318 4.5502 7.3504.7519 2.6187.8686 5.1207.35 7.506-.5185 2.3853-1.6593 4.4594-3.4224 6.2225-1.2963 1.2964-2.826 2.0223-4.5891 2.1779-1.763.1556-3.3706.2333-4.8225.2333-.726 0-1.413.0649-2.0612.1945-.6482.1296-1.2056.4278-1.6723.8945-.4667.4667-.687 1.1797-.6611 2.139.0259.9593.2333 1.9186.6222 2.8779.389.9593.8686 1.7242 1.439 2.2946s1.5686.713 2.9946.4278c1.426-.2852 2.9557-.8816 4.589-1.789 1.6335-.9075 3.0465-1.9575 4.2392-3.1502zM987.3233 46.4144c.1556-.1556.3112-.5963.4667-1.3223.1556-.726-.0518-1.426-.6222-2.1-.6741-.8816-1.439-2.1132-2.2946-3.6947-.8556-1.5816-1.7242-3.2539-2.6057-5.017-.8815-1.763-1.6593-3.2927-2.3334-4.589-.2593-.363-.5834-.6353-.9723-.8168-.389-.1815-.7649-.0907-1.1278.2723-.4667.4667-.7 1.089-.7 1.8667 0 .7778.1036 1.426.311 1.9446.5186 1.5556.752 2.9557.7 4.2002-.0518 1.2445-.35 2.4242-.8944 3.539-.5445 1.115-1.413 2.3724-2.6057 3.7725-1.089 1.2963-2.2427 2.6057-3.4613 3.928a133.5073 133.5073 0 01-3.7724 3.928 124.2182 124.2182 0 01-3.7335 3.5779c-1.2964 1.1926-2.4631 2.2038-3.5002 3.0335-.8815.674-1.426.9074-1.6334.7-.1037-.1037-.1556-.9074-.1556-2.4112l.0002-.3288c.0017-1.4531.0146-3.2751.0387-5.466.026-2.3593.0519-4.8743.0778-7.5448a790.393 790.393 0 00.0389-7.6615c0-2.4372-.0519-4.4854-.1556-6.1448-.2074-2.1778-.6352-4.5243-1.2834-7.0392-.6482-2.515-1.5167-4.9132-2.6057-7.1948-1.089-2.2816-2.3334-4.1224-3.7335-5.5225-2.4371-2.4372-5.1206-4.1354-8.0504-5.0947-2.9298-.9593-5.9114-1.089-8.9449-.389-3.0335.7001-5.8725 2.3724-8.5171 5.017-2.2297 2.2297-3.889 4.7447-4.978 7.5448-1.089 2.8002-1.7501 5.5614-1.9835 8.2838-.2333 2.7223-.1555 5.1076.2334 7.1559.3889 2.0482.9723 3.4613 1.75 4.2391.5705.5704 1.1409.9334 1.7113 1.089.5704.1555 1.0111.0777 1.3223-.2334.4666-.4667.726-1.037.7778-1.7112.0518-.6741.0518-1.2964 0-1.8668-.363-2.5408-.2463-5.1984.35-7.9726.5963-2.7742 1.8538-5.1206 3.7724-7.0392 2.0742-2.0742 4.5243-2.9946 7.3504-2.7613 2.826.2334 5.4317 1.5427 7.817 3.928 3.5262 3.5261 6.1189 7.5967 7.7782 12.2117 1.6594 4.615 2.5927 9.6709 2.8002 15.1675l1.089 25.0457c0 .4148-.013.8167-.039 1.2056-.026.389.1685.7908.5834 1.2056.2593.2593.7648.3241 1.5167.1945.752-.1297 1.2056-.2723 1.3612-.4278.2593-.2593.9075-.9593 1.9446-2.1001 1.037-1.1408 2.2945-2.476 3.7724-4.0058 1.4778-1.5297 2.9686-3.0724 4.4724-4.628 1.5038-1.5556 2.852-2.9298 4.0447-4.1224 1.1926-1.1927 2.5408-2.515 4.0446-3.967a327.7601 327.7601 0 014.4725-4.239c1.4778-1.3742 2.7742-2.5668 3.889-3.578 1.115-1.0111 1.8539-1.6982 2.2168-2.0612zM44.8513 67.4189c1.2445-1.2445 2.5668-2.6446 3.9668-4.2002a368.479 368.479 0 014.2003-4.5891c1.4-1.5038 2.7223-2.878 3.9668-4.1225 1.1927-1.1926 2.5409-2.489 4.0447-3.889 1.5038-1.4001 3.0335-2.8261 4.5891-4.278 1.5556-1.452 2.9557-2.8002 4.2002-4.0447.7778-.7778.8297-1.5038.1556-2.1779-.363-.363-.7778-.5185-1.2445-.4667-.4667.0519-.9593.2334-1.4779.5445-2.1779 1.2445-4.0317 2.2427-5.5614 2.9946s-2.9038 1.1149-4.1224 1.089c-1.2186-.026-2.3983-.6094-3.539-1.7502L18.561 7.0603c-1.2963-1.2964-2.3334-2.4372-3.1112-3.4224-.7778-.9853-1.4779-1.8409-2.1001-2.5668-.2593-.2593-.5964-.3112-1.0112-.1556a3.0233 3.0233 0 00-1.089.7c-.1555.1556-.2851.3112-.3888.4667-.1038.1556-.1556.2852-.1556.389-.726 3.7335-1.8668 7.0522-3.4224 9.956-1.5556 2.9039-3.578 5.9114-6.067 9.0227C.6453 22.124.2823 22.824.1267 23.55c-.1555.726.026 1.3482.5445 1.8668.5704.5704 1.1927.7518 1.8668.5444.6741-.2074 1.2704-.5185 1.789-.9333 1.2963-.9853 2.5668-1.8409 3.8113-2.5668 1.2445-.726 2.489-1.115 3.7335-1.1668 1.2445-.0518 2.4631.5186 3.6558 1.7112L44.229 51.707c1.2445 1.2445 1.9186 2.489 2.0223 3.7335.1038 1.2445-.2074 2.6187-.9333 4.1224-.726 1.5038-1.7112 3.2928-2.9557 5.367-.6223 1.1408-.5964 2.0482.0777 2.7223.3112.3112.7.4408 1.1668.389.4667-.0519.8815-.2593 1.2445-.6223z"/></g><g fill="#C5C4C2"><path d="M863.9142 183.0025l5.6569 5.6568-44.5478 44.5478-5.6568-5.6569zM808.0528 127.141l5.6568 5.657-44.5477 44.5476-5.6568-5.6568zM833.5086 101.6852l5.6569 5.6569-19.799 19.799-5.6569-5.6569zM889.37 157.5467l5.657 5.6568-19.799 19.799-5.657-5.6569z"/><path d="M763.505 171.6888l8.4853-8.4853 61.5183 61.5183-8.4853 8.4853zM819.3665 115.8274l8.4852-8.4853 61.5183 61.5183-8.4853 8.4853z"/></g><g fill="#C5C4C2"><path d="M372.6482 71.9375h8v31h-8zM318.6482 71.9375h8v31h-8z"/><path d="M318.6482 102.9376v-12h62v12z"/></g><g fill="#C5C4C2"><path d="M161.8683 279.7804l8.4853-8.4853L371.879 472.8205l-8.4853 8.4853zM118.7348 598.6856l8.4852-8.4853 108.8945 108.8944-8.4853 8.4853zM197.2236 491.9124l8.4853-8.4853 102.5305 102.5305-8.4853 8.4853z"/><path d="M184.4957 664.4465l-8.4853-8.4853L365.515 466.4566l8.4853 8.4853zM126.513 606.4637l-8.4853-8.4853 30.4055-30.4055 8.4853 8.4852zM205.7089 500.3977l-8.4853-8.4853 43.1335-43.1335 8.4853 8.4853zM227.6292 707.58l-8.4853-8.4853 80.6102-80.6102 8.4853 8.4853z"/><path d="M288.4404 618.4845l5.6568-5.6568 19.799 19.799-5.6568 5.6568zM308.2394 574.644l5.6568 5.6568-19.799 19.799-5.6568-5.6569zM176.0104 265.6383l5.6569 5.6568-19.799 19.799-5.6569-5.6569zM229.7505 448.0718l5.6569-5.6568 19.799 19.799-5.6569 5.6568zM142.7764 573.2297l5.6568-5.6568 14.1422 14.142-5.6569 5.657z"/><g><path d="M476.9643 461.3703l5.6569 5.6569-19.799 19.799-5.6569-5.6569zM139.6744 124.0804l5.6568 5.6568-19.799 19.799-5.6568-5.6568zM170.787 92.9677l5.657 5.6569-19.799 19.799-5.657-5.657zM205.4353 127.616l5.6569 5.6568-19.799 19.799-5.6569-5.6569zM144.6242 184.1845l-5.6569 5.6568-19.799-19.799 5.6569-5.6568z"/><path d="M125.5322 138.2226l8.4853-8.4853 342.9468 342.9468-8.4853 8.4853zM156.645 107.1099l8.4852-8.4853 40.3051 40.3051-8.4853 8.4853z"/><path d="M198.3642 102.16l8.4853 8.4854-72.832 72.832-8.4853-8.4853z"/></g><g><path d="M438.9284 350.457l2.0705 7.7273-27.0459 7.247-2.0705-7.7275zM449.4693 169.565l-7.7274 2.0705-7.247-27.046 7.7274-2.0705z"/><path d="M369.9167 170.1755l11.591-3.1058 51.7639 193.1851-11.5911 3.1059z"/><path d="M444.293 150.2465l3.1057 11.591-74.3762 19.9291-3.1059-11.591z"/></g><g><path d="M166.0818 539.3568c17.2063 22.5552 34.4125 33.1618 51.6188 31.8198 20.7322-1.6169 66.1043-7.535 84.5778-4.8862 10.748 1.541 17.3906 9.1868 22.9024 13.3715 9.0763 6.8909 19.1325 11.592 26.1165 8.366 6.984-3.226 11.9338-8.1757 14.1886-14.73.5931-1.724 1.1047-6.8748 0-9.8994-1.5032-4.1158-4.3316-7.887-8.4853-11.3137l-8.4852 8.4852c6.982 5.3124 8.1605 10.2621 3.5355 14.8493-6.241 6.19-20.6397-4.7595-31.2463-13.9518-5.7653-4.9966-8.9301-5.7615-13.435-6.364-8.962-1.1986-34.2545-.9878-47.3761.7071-13.8323 1.7866-26.4625 2.3245-37.3431 3.3452-17.1042 1.6046-23.2255-4.4437-26.163-6.364-6.3637-4.16-13.6705-11.4668-21.9203-21.9202l-8.4853 8.4852z"/><path d="M181.598 523.9375l5.6568 5.6569-21.9203 21.9203-5.6569-5.6568z"/></g><g transform="rotate(45 118.5803 547.278)"><path d="M31.0704 223.0374h12v160h-12z"/><path d="M31.0422 224.8903c1.6154-19.425 3.6455-33.443 6.0901-42.054 7.8999-27.8258 23.187-50.4323 43.0409-68.2323 43.6045-39.094 72.5548-21.019 102.2196-19.3455 29.6648 1.6735 64.4035.136 71.3197-19.1404.6109-1.7024 1.603-3.843 2.9763-6.4218l8.3533 8.3533 11.3224 4.898-6.5104 6.5103c-7.36 7.36-19.7596 13.0404-34.2906 15.7639-23.8384 4.468-52.1072 2.7412-63.604.47-14.5717-2.8786-37.5269-10.5794-58.3358-2.981-2.5972.9484-10.46 4.3934-18.0021 10.2904-8.7691 6.8562-17.4418 16.5573-22.1645 22.1645-7.769 9.224-13.884 21.1642-18.9749 32.0759-5.6078 12.0197-9.3742 31.278-11.2991 57.7748l-12.141-.1261z"/><circle cx="267.2128" cy="74.9747" r="12"/></g></g><g transform="rotate(-45 892.057 -66.3244)"><circle stroke="#C5C4C2" stroke-width="8" cx="12.4038" cy="12.9038" r="8"/><path fill="#C5C4C2" d="M.4038 11.9038h8v24h-8zM16.4038 12.9038h8v24h-8z"/></g><g fill="#C5C4C2"><path d="M756.6482 93.7771l9 2.5913v29.7296l-9-2.5913zM655.6482 189.7771l9 2.5913v29.7296l-9-2.5913zM697.98 108.0383l2.607-8.9955 29.7295.052-2.607 8.9954z"/><path d="M707.6482 98.9376h12v144h-12z"/><path d="M757.3173 103.7832l8.4852 8.4853L663.9792 214.092l-8.4853-8.4853z"/></g><g fill="#C5C4C2"><path d="M131.4228 727.2388l5.6568 5.6569-19.799 19.799-5.6568-5.6569zM168.8995 742.0881l-5.6569 5.6569-19.799-19.799 5.6569-5.6569zM218.397 744.9165l-5.657 5.6569-14.142-14.1421 5.6568-5.6569zM132.13 778.8577l-5.657 5.6568-19.799-19.799 5.657-5.6568z"/><path d="M117.2806 741.381l8.4853-8.4853 52.3259 52.326-8.4853 8.4852z"/><path d="M209.9116 736.4312l8.4853 8.4853-48.7904 48.7904-8.4852-8.4853zM154.7573 727.946l8.4853 8.4852-42.4264 42.4264-8.4853-8.4853z"/></g><g fill="#C5C4C2" fill-rule="nonzero"><path d="M577.7139 162.4295c2.1267 0 4.235-.11 6.325-.33 2.09-.22 4.235-.33 6.435-.33 2.2 0 4.2167.055 6.05.165 1.8333.11 3.5933.165 5.28.165.88 0 1.5583-.1283 2.035-.385.4767-.2567.715-.605.715-1.045 0-1.0267-.99-1.7967-2.97-2.31-2.64-.66-4.4917-1.5583-5.555-2.695-1.0633-1.1367-1.4117-2.695-1.045-4.675.1467-.8067.385-1.76.715-2.86.33-1.1.6967-2.2917 1.1-3.575.4033-1.2833.8067-2.53 1.21-3.74.4033-1.21.7517-2.2917 1.045-3.245.1467-.66.3667-1.155.66-1.485.2933-.33.6967-.495 1.21-.495h19.8c.8067 0 1.3567.1283 1.65.385.2933.2567.5133.6783.66 1.265.5133 1.54 1.0083 3.245 1.485 5.115.4767 1.87.935 3.6667 1.375 5.39.44 1.7233.77 3.2083.99 4.455.2933 1.76-.1467 3.0983-1.32 4.015-1.1733.9167-3.08 1.595-5.72 2.035-.8067.1467-1.5033.4217-2.09.825-.5867.4033-.88.8983-.88 1.485 0 .5133.275.8983.825 1.155.55.2567 1.1917.385 1.925.385 1.2467 0 2.7683-.0367 4.565-.11l5.39-.22c1.7967-.0733 3.4283-.11 4.895-.11 1.6867 0 3.5933.055 5.72.165 2.1267.11 4.1983.2017 6.215.275 2.0167.0733 3.685.11 5.005.11.7333 0 1.3383-.11 1.815-.33.4767-.22.715-.55.715-.99 0-.66-.2567-1.1733-.77-1.54-.5133-.3667-1.2467-.66-2.2-.88-1.4667-.3667-2.805-.8617-4.015-1.485-1.21-.6233-2.31-1.5217-3.3-2.695-.99-1.1733-1.815-2.75-2.475-4.73l-1.9097-5.7291-.673-2.019-1.7623-5.2869a2447.843 2447.843 0 01-4.895-14.85 8696.8943 8696.8943 0 01-5.115-15.73 1276.4061 1276.4061 0 01-5.005-15.785 34.5616 34.5616 0 00-.44-1.43c-.1467-.44-.33-.88-.55-1.32-.22-.3667-.44-.5317-.66-.495-.22.0367-.44.1283-.66.275-.3667.44-.9167 1.0633-1.65 1.87-.7333.8067-1.6133 1.4667-2.64 1.98-1.1733.44-2.2367.8067-3.19 1.1-.9533.2933-1.98.5867-3.08.88-.22.5867-.4767 1.5033-.77 2.75s-.8433 3.0067-1.65 5.28c-1.6133 4.5467-3.2083 8.8733-4.785 12.98-1.5767 4.1067-3.135 8.14-4.675 12.1a452.7033 452.7033 0 01-4.84 11.935 9354.3425 9354.3425 0 01-5.28 12.485c-.9533 2.1267-2.2183 3.795-3.795 5.005-1.5767 1.21-3.4283 2.1083-5.555 2.695-.88.2933-1.595.6233-2.145.99s-.825.88-.825 1.54c0 .5867.2933 1.0083.88 1.265.5867.2567 1.32.385 2.2.385zm41.47-31.9h-15.29c-.5867 0-1.0817-.0733-1.485-.22s-.605-.4033-.605-.77c0-.22.0733-.5133.22-.88l9.24-25.52c.3667-.9533.6233-1.43.77-1.43.22 0 .4767.5133.77 1.54l7.7 25.41.165.66c.0367.1467.055.33.055.55 0 .44-.5133.66-1.54.66zM613.1007 340.5505a84.6244 84.6244 0 003.6168-3.8502 273.0514 273.0514 0 013.4613-3.8502 113.99 113.99 0 013.4224-3.578c1.089-1.0889 2.2427-2.1908 3.4613-3.3057a1847.5668 1847.5668 0 003.7724-3.4612 126.8151 126.8151 0 003.8113-3.6558c.5185-.5185.8556-1.0111 1.0112-1.4778.1555-.4667.0518-.8816-.3112-1.2445-.4148-.4149-.8945-.5575-1.439-.4278-.5444.1296-1.2315.4537-2.0611.9722-2.489 1.452-4.5243 2.2427-6.106 2.3724-1.5815.1296-3.176-.6093-4.7835-2.2168l-35.1573-35.1574c-1.6594-1.6593-2.489-3.215-2.489-4.6669 0-1.4519.7778-3.4742 2.3334-6.067.4667-.7778.7519-1.4519.8556-2.0223.1037-.5704-.0519-1.063-.4667-1.4778-.363-.363-.7908-.4797-1.2834-.35-.4926.1296-.9982.4537-1.5167.9722a119.0463 119.0463 0 00-3.578 3.7336 1620.3217 1620.3217 0 00-3.3057 3.6168 100.6188 100.6188 0 01-3.228 3.3835 102.9826 102.9826 0 01-3.4613 3.3057 1620.3217 1620.3217 0 00-3.6168 3.3058 119.0463 119.0463 0 00-3.7335 3.578c-.4667.4666-.7908.9722-.9723 1.5167-.1815.5444-.1167.9722.1945 1.2834.8296.8296 2.0223.726 3.578-.3112 2.437-1.6075 4.3816-2.4112 5.8335-2.4112 1.452 0 3.0335.8556 4.7447 2.5668l35.313 35.313c1.6593 1.6593 2.4112 3.2927 2.2556 4.9002-.1555 1.6075-1.0111 3.6039-2.5668 5.9892-1.037 1.5556-1.1667 2.7223-.3889 3.5001.3111.3112.739.376 1.2834.1945.5445-.1815 1.05-.5056 1.5168-.9723zM187.0717 458.378c1.0371-1.037 1.8409-2.3334 2.4113-3.889.5704-1.5557.8556-3.2669.8556-5.1337 0-1.6593-.2852-2.7742-.8556-3.3446-.2593-.2593-.5704-.3889-.9334-.3889s-.6741.1296-.9334.389c-.1556.1555-.2333.4407-.2333.8555-.0519 1.2964-.6223 2.489-1.7112 3.578-.726.726-1.7242.9463-2.9946.6611-1.2705-.2852-2.4502-1.0241-3.5391-2.2168l-16.2564-17.0342c-2.5927-2.6964-5.4577-4.1094-8.5949-4.239-3.1372-.1297-5.9503 1.05-8.4393 3.539-1.089 1.089-2.113 2.6316-3.0724 4.628-.9593 1.9964-1.789 4.2002-2.489 6.6115-.7 2.4112-1.1537 4.8095-1.3612 7.1948-.2074 2.1779-.1555 3.9669.1556 5.367.3111 1.4.8815 2.5149 1.7112 3.3445.363.363.7778.5704 1.2445.6223.4667.0518.8815-.1037 1.2445-.4667.6741-.6741 1.3223-1.6853 1.9446-3.0335.6222-1.3482 1.0889-2.6446 1.4-3.889.3112-1.2446.3112-2.0224 0-2.3335-.3111-.3112-.674-.6482-1.089-1.0112-.4148-.363-.7518-.6741-1.011-.9334-.3112-.3111-.5964-.674-.8557-1.089-.2593-.4148-.3889-.8296-.3889-1.2444 0-.8297.2334-1.7371.7-2.7224.4667-.9852 1.0371-1.8149 1.7112-2.489 1.2964-1.2964 2.7094-1.8279 4.2392-1.5945 1.5297.2333 2.9945 1.1019 4.3946 2.6057l4.4336 4.7446c.9852.9853 1.5427 1.776 1.6723 2.3724.1296.5963-.1167 1.6204-.739 3.0724l-4.1224 10.345c-1.1926 2.9556-1.75 5.5095-1.6723 7.6614.0778 2.152.9982 4.1095 2.7613 5.8726 1.1408 1.1408 2.5927 1.9186 4.3558 2.3334 1.763.4149 3.539.4019 5.328-.0389 1.789-.4407 3.3057-1.2834 4.5502-2.5279 1.6075-1.6075 2.7872-3.4613 3.5391-5.5614.7519-2.1 1.2315-4.7576 1.439-7.9726l.2333-.2333c4.5632 1.1408 8.219.337 10.9672-2.4113zm-16.5675 7.2337c-.726.726-1.7241 1.1279-2.9946 1.2056-1.2704.0778-2.6057-.5833-4.0057-1.9834-1.4001-1.4-2.126-2.9557-2.178-4.6669-.0518-1.7112.4927-3.915 1.6335-6.6114.1037-.4149.2463-.739.4278-.9723.1815-.2334.324-.4019.4278-.5056.2074-.2074.4796-.2982.8167-.2722.337.0259.739.324 1.2056.8945l4.8225 5.1335c.6222.726 1.05 1.3353 1.2834 1.828.2333.4925.376.9722.4278 1.4389.0518.7778-.0648 1.5427-.35 2.2945-.2852.752-.7908 1.4909-1.5168 2.2168zM667.64 288.2198c.1555-.1556.2852-.363.3889-.6223l.4667-1.1667c1.1408-2.5927 2.3853-5.0299 3.7335-7.3115 1.3482-2.2816 2.8001-4.4076 4.3558-6.378.2593-.2594.337-.726.2333-1.4002-.1037-.674-.363-1.2185-.7778-1.6334-.5704-.5704-1.2186-.4407-1.9445.389-.9334 1.1407-1.5946 1.9315-1.9835 2.3723-.3889.4407-.713.7908-.9722 1.05-.6223.6223-1.452.6741-2.489.1556-1.0371-.5185-2.4372-1.6593-4.2003-3.4224l-37.6463-38.113c-1.2964-1.4001-2.4372-2.6706-3.4224-3.8114-.9853-1.1408-1.763-2.0482-2.3335-2.7223l-.8556-1.0112c-.5185-.5185-1.037-.5185-1.5556 0-.0519.0519-.1556.2334-.3111.5445-.1556.3111-.389.8297-.7 1.5556-.6223 1.6594-1.5298 3.6817-2.7224 6.067-1.1927 2.3853-2.5668 4.8225-4.1225 7.3115-.363.6741-.2592 1.2964.3112 1.8667.6222.6223 1.2963.726 2.0223.3112 1.3482-.9334 2.6705-1.2705 3.9668-1.0112 1.2964.2593 2.9298 1.3742 4.9003 3.3446l9.8005 9.8005c.8815.8816 1.1927 1.452.9334 1.7112-.0519.0519-.4667.3112-1.2445.7778-.8816.4667-1.8409 1.089-2.878 1.8668-1.037.7778-1.9964 1.6075-2.8779 2.489-3.6298 3.6298-6.028 7.6097-7.1948 11.9395-1.1667 4.3299-1.1538 8.6208.0389 12.8729 1.1927 4.252 3.4743 8.0634 6.8448 11.434 2.852 2.852 6.1448 4.8742 9.8783 6.0669 3.7335 1.1926 7.454 1.413 11.1617.6611 3.7076-.7519 7.0133-2.5797 9.9171-5.4836 2.2816-2.2816 3.7595-4.8743 4.4336-7.7782.6741-2.9038.7778-5.5743.3111-8.0115l.4667.4667a514.8228 514.8228 0 011.8668 2.2557c.726.8815 1.4 1.7371 2.0223 2.5668.1556.1556.5185.2333 1.089.2333.5703 0 .9333-.0777 1.0889-.2333zm-12.6007 2.0223c-.9852.9852-2.2686 1.776-3.8502 2.3724-1.5815.5963-3.3575.8426-5.328.7389-1.9705-.1037-4.0965-.7-6.3781-1.789s-4.615-2.826-7.0004-5.2114c-2.9038-2.9038-4.8873-5.691-5.9503-8.3615-1.063-2.6705-1.4519-5.0558-1.1667-7.156.2852-2.1 1.05-3.7723 2.2946-5.0169 1.3482-1.3482 2.9686-2.2686 4.8613-2.7612 1.8927-.4926 3.7335-.5704 5.5225-.2334 1.789.3371 3.228 1.0501 4.317 2.139l16.1785 16.1786c.0519 1.7112-.2722 3.4095-.9723 5.0948-.7 1.6852-1.5426 3.0205-2.5279 4.0057zM518.2102 240.4624c4.0965-4.0965 6.6633-8.3486 7.7004-12.7562 1.037-4.4077.8556-8.6857-.5445-12.834-1.4-4.1484-3.7076-7.83-6.9226-11.045-2.9038-2.9039-6.3262-4.8225-10.2672-5.7559-3.941-.9334-7.9078-.8815-11.9006.1556-3.9928 1.037-7.5707 3.1372-10.7339 6.3003-2.489 2.489-4.3169 5.328-5.4836 8.5171-1.1667 3.189-1.6982 6.443-1.5945 9.7616.1037 3.3187.7778 6.5337 2.0223 9.645 1.2445 3.1112 3.0594 5.8595 5.4447 8.2448 3.0595 3.0594 6.5337 5.0818 10.4228 6.067 3.889.9852 7.7393.9463 11.5506-.1167 3.8113-1.063 7.2466-3.1242 10.306-6.1836zm-1.4779-4.5891c-1.6075 1.6074-3.7724 2.3204-6.4948 2.139-2.7223-.1815-5.6003-1.0371-8.6337-2.5668-3.0335-1.5298-5.7948-3.5391-8.2838-6.0281-2.489-2.489-4.5113-4.8484-6.067-7.0782-1.5556-2.2297-2.4112-4.3558-2.5668-6.378-.1037-1.452.0778-2.7484.5445-3.8892s1.1927-2.2038 2.1779-3.189c1.763-1.763 3.9669-2.6187 6.6114-2.5668 2.6446.0518 5.4448.8297 8.4005 2.3334 2.9557 1.5038 5.8077 3.6299 8.556 6.3781 2.0741 2.0742 3.889 4.1225 5.4447 6.1448 1.5556 2.0223 2.5668 3.889 3.0335 5.6003.4667 1.7112.4537 3.3316-.039 4.8613-.4925 1.5298-1.387 2.9428-2.6834 4.2392zM261.6412 246.2383c1.7-.4555 3.3811-.9818 5.0432-1.579a128.919 128.919 0 014.9615-1.6711c1.6457-.5169 3.2477-.9841 4.806-1.4017 1.4167-.3796 2.9314-.7475 4.5442-1.1037a284.7535 284.7535 0 015.0119-1.0582c1.7285-.3493 3.4073-.7422 5.0365-1.1787.7792-.2088 1.3351-.4717 1.6678-.7886.3326-.3168.4325-.7232.2997-1.219-.1519-.5667-.483-.9525-.9934-1.1574-.5105-.2049-1.245-.2548-2.2039-.1497-3.0042.1217-5.2472-.2453-6.7292-1.1009-1.482-.8555-2.536-2.4521-3.1624-4.7897l-13.2462-49.8605c-.4745-1.771-.272-3.2107.6077-4.3195.8797-1.1088 2.3112-1.929 4.2946-2.4604 4.25-1.1388 8.0167-.6107 11.3 1.5843 3.2834 2.195 5.7601 6.4093 7.4304 12.6427 1.5184 5.6668 1.8654 10.4327 1.041 14.2978-.8244 3.865-2.9012 6.2436-6.2304 7.1357-1.2042.3226-2.1216.5115-2.7522.5666-.6305.055-1.2646.168-1.902.3388-.3543.095-.7189.3634-1.0939.8056-.375.442-.5055.8757-.3917 1.3007.1709.6375.7879 1.0985 1.851 1.383 1.0633.2845 2.4803.1895 4.2512-.285 5.6667-1.5184 10.0558-3.9092 13.1673-7.1723 3.1114-3.2632 5.072-6.9962 5.8819-11.199.8098-4.2028.6264-8.5-.5504-12.8918-1.6702-6.2334-5.4945-10.4472-11.4728-12.6414-5.9782-2.1941-13.182-2.1619-21.6113.0968-1.9125.5124-3.5759 1.034-4.99 1.5648a893.2234 893.2234 0 00-4.1362 1.5638c-1.3433.5118-2.7942.9765-4.3525 1.394-1.4167.3796-2.8075.7143-4.1723 1.0041-1.3649.2898-2.778.6115-4.2397.9652-1.4616.3537-3.0424.7583-4.7424 1.2138-.7792.2088-1.3658.4988-1.7598.87-.394.3714-.5245.805-.3917 1.3008.1139.425.4355.7754.965 1.051.5293.2758 1.3183.387 2.367.3338 2.7018-.1166 4.6663.344 5.8934 1.3818 1.227 1.0377 2.2012 2.9025 2.9225 5.5942l12.5268 46.7508c.6264 2.3375.5057 4.154-.362 5.4494-.8675 1.2953-2.5713 2.587-5.1112 3.8749-1.676.8287-2.3716 1.7742-2.0869 2.8368.114.425.452.695 1.0143.81.5622.1151 1.1621.0872 1.7996-.0836zM455.35 391.14c1.7631-1.763 4.0058-3.176 6.7282-4.239 2.7224-1.063 5.6392-1.5946 8.7505-1.5946 3.1112 0 6.2484.5964 9.4115 1.789 3.1632 1.1927 6.067 3.1113 8.7116 5.7559 1.7112 1.7112 3.228 3.7724 4.5502 6.1836 1.3223 2.4112 2.3594 5.004 3.1113 7.7782.7519 2.7742 1.102 5.5355 1.05 8.2837.1038 2.0742.1686 4.2391.1945 6.4948.026 2.2557.0908 4.4206.1945 6.4948.1037 2.0742.1555 3.8372.1555 5.2892.1037.726.2723 1.5685.5056 2.5279.2334.9593.5056 1.5945.8167 1.9056.2593.2593.5445.2852.8556.0778.3111-.2074.5186-.363.6223-.4667 1.089-1.089 1.9704-2.2816 2.6446-3.578.674-1.2963 1.3741-3.1372 2.1-5.5225 1.0372-3.0075 1.5687-5.8725 1.5946-8.5948.026-2.7224-.026-5.0559-.1556-7.0004-.1296-1.9445.013-3.1242.4278-3.539.5186-.5186 1.1797-.765 1.9835-.739.8037.026 1.4908.324 2.0612.8945 1.6593 1.6593 2.852 3.8372 3.578 6.5337.7259 2.6964 1.05 5.665.9722 8.906-.0778 3.2409-.4796 6.4688-1.2056 9.6838s-1.7242 6.1836-2.9946 8.906c-1.2704 2.7224-2.7613 4.9391-4.4725 6.6503-.9852.9853-2.2167 1.7242-3.6946 2.2168-1.4778.4926-2.865.739-4.1613.739-1.2964 0-2.1779-.2334-2.6446-.7-1.037-1.0372-1.8408-2.4372-2.4112-4.2003-.5704-1.763-.9723-3.4872-1.2056-5.1725-.2334-1.6853-.402-2.8909-.5056-3.6168 0-2.178-.1037-4.7707-.3112-7.7782a264.6021 264.6021 0 00-.7778-9.0227c-.3111-3.0076-.7-5.5225-1.1667-7.5448 0-.4149-.1167-.5575-.35-.4278-.2334.1296-.376.4278-.4278.8945 0 .5185-.2723 1.4649-.8167 2.839-.5445 1.3741-1.1667 2.7483-1.8668 4.1224-.7 1.3742-1.3352 2.2946-1.9056 2.7613-1.452 1.3482-3.241 2.3334-5.367 2.9557-2.126.6222-4.4724.7648-7.0392.4278-2.5668-.337-5.1855-1.1927-7.856-2.5668-2.6705-1.3741-5.2762-3.3317-7.817-5.8725-2.541-2.5409-4.3429-5.1984-5.4059-7.9727-1.063-2.7742-1.5556-5.4965-1.4778-8.167.0777-2.6705.5833-5.1207 1.5167-7.3504.9334-2.2298 2.1001-4.0447 3.5002-5.4447zm3.8114 10.8117c-1.1408 1.1408-1.9575 2.3464-2.4501 3.6169-.4926 1.2704-.6223 2.489-.389 3.6557.2334 1.1667.713 2.113 1.439 2.839 1.815 1.815 4.0187 3.215 6.6115 4.2003 2.5927.9852 5.2762 1.4908 8.0504 1.5167 2.7742.026 5.4966-.4408 8.167-1.4 2.6706-.9594 5.043-2.4761 7.1171-4.5503.4667-.4667.4537-1.2575-.0389-2.3723-.4926-1.115-1.1926-2.3335-2.1001-3.6558-.9075-1.3223-1.8279-2.4501-2.7613-3.3835-1.3482-1.3482-3.0594-2.4112-5.1335-3.189-2.0742-.7779-4.265-1.2057-6.5726-1.2834-2.3075-.0778-4.5243.2203-6.6503.8945-2.126.674-3.8891 1.7112-5.2892 3.1112zM119.9182 291.3676c4.3267 0 8.3234-.8434 11.99-2.53 3.6667-1.6867 6.6367-4.0334 8.91-7.04 2.2734-3.0067 3.41-6.5634 3.41-10.67 0-2.7134-.6233-5.115-1.87-7.205-1.2466-2.09-2.9516-4.0334-5.115-5.83-2.1633-1.7967-4.6016-3.575-7.315-5.335-.66-.44-.99-.825-.99-1.155 0-.33.5134-.825 1.54-1.485.9534-.66 1.8517-1.2467 2.695-1.76a146.2066 146.2066 0 002.475-1.54c1.54-.9534 2.9884-2.31 4.345-4.07 1.3567-1.76 2.035-4.0334 2.035-6.82 0-3.08-.9166-5.7567-2.75-8.03-1.8333-2.2734-4.235-4.0334-7.205-5.28-2.97-1.2467-6.0683-1.87-9.295-1.87-3.6666 0-7.205.66-10.615 1.98-3.41 1.32-6.215 3.19-8.415 5.61-2.2 2.42-3.3 5.2066-3.3 8.36 0 2.9333.605 5.5183 1.815 7.755 1.21 2.2366 2.7867 4.29 4.73 6.16 1.9434 1.87 4.015 3.685 6.215 5.445.5867.3666.9534.66 1.1.88.1467.22-.0733.5133-.66.88-2.0533 1.1733-4.2533 2.4566-6.6 3.85-2.3466 1.3933-4.3633 3.0983-6.05 5.115-1.6866 2.0166-2.53 4.4916-2.53 7.425 0 3.3733.9717 6.3616 2.915 8.965 1.9434 2.6033 4.565 4.62 7.865 6.05 3.3 1.43 6.8567 2.145 10.67 2.145zm5.83-42.46c-.2933.2933-.605.4033-.935.33-.33-.0734-.6783-.2567-1.045-.55-2.0533-1.6134-3.9233-3.1167-5.61-4.51-1.6866-1.3934-3.025-2.8784-4.015-4.455-.99-1.5767-1.485-3.5384-1.485-5.885 0-1.76.44-3.3184 1.32-4.675.88-1.3567 1.9984-2.4384 3.355-3.245 1.3567-.8067 2.805-1.21 4.345-1.21 2.86 0 4.95 1.0633 6.27 3.19 1.32 2.1266 1.98 4.62 1.98 7.48 0 2.7866-.2933 5.3533-.88 7.7-.5866 2.3466-1.6866 4.29-3.3 5.83zm-3.96 38.28c-2.2 0-4.0883-.6784-5.665-2.035-1.5766-1.3567-2.805-3.1167-3.685-5.28-.88-2.1634-1.32-4.4184-1.32-6.765 0-3.08.4034-5.5734 1.21-7.48.8067-1.9067 2.1267-3.6667 3.96-5.28.7334-.5134 1.21-.77 1.43-.77.2934 0 .5867.0916.88.275.2934.1833.6234.4583.99.825 1.8334 1.32 3.6667 2.8233 5.5 4.51 1.8334 1.6866 3.3734 3.5016 4.62 5.445 1.2467 1.9433 1.87 3.9416 1.87 5.995 0 2.86-.9166 5.335-2.75 7.425-1.8333 2.09-4.18 3.135-7.04 3.135zM224.3167 120.8726c0 12.3177 3.7956 22.0304 11.3867 29.1382 7.5912 7.1077 17.9753 10.6616 31.1524 10.6616 12.7473 0 22.7555-3.2405 30.0244-9.7217 3.9746-3.5449 6.7854-7.5911 8.4326-12.1386 1.6471-4.5476 2.4707-10.4916 2.4707-17.832 0-6.875-1.0205-13.7143-3.0615-20.5176h-12.9444c3.4017 7.627 5.1026 14.0543 5.1026 19.2822 0 7.0182-2.1306 12.5773-6.3916 16.6772-4.2611 4.1-10.026 6.15-17.295 6.15v-30.2393H262.559v30.5615c-7.5196 0-13.8664-2.417-19.0406-7.251-5.1741-4.834-7.7612-10.7959-7.7612-17.8857 0-5.2995 1.5934-11.3151 4.7803-18.0469H228.345c-2.6855 6.6602-4.0283 13.7142-4.0283 21.1621z"/></g><g transform="translate(440.6482 82.4376)"><path fill="#C5C4C2" d="M91 18.5h12v69H91z"/><circle stroke="#C5C4C2" stroke-width="8" cx="103" cy="13.5" r="9"/><path fill="#C5C4C2" d="M63 9.5h12v78H63zM1 9.5h13.8l37.8962 65.775-10.3924 6z"/><path fill="#C5C4C2" d="M75 9.5v8H12v-8zM103 79.5v8H63v-8z"/></g></g></svg>