<?xml version="1.0" encoding="UTF-8"?>
<svg width="256px" height="256px" viewBox="0 0 256 256" version="1.1" xmlns="http://www.w3.org/2000/svg" xmlns:xlink="http://www.w3.org/1999/xlink">
    <title>heiroglyph</title>
    <g id="heiroglyph" stroke="none" stroke-width="1" fill="none" fill-rule="evenodd">
        <g transform="translate(68.000000, 6.000000)" fill="#D76600">
            <g id="fire" transform="translate(6.000000, 210.000000)">
                <path d="M80.737013,-7.10542736e-15 C92.3288404,-7.10542736e-15 102.378785,6.73011843 107.332318,16.5666173 C107.661687,18.312144 107.834416,20.1146745 107.834416,21.9583333 C107.834416,25.9270071 107.034039,29.7051032 105.588867,33.1340117 C104.129156,19.675709 92.9373266,9.20833333 79.3474026,9.20833333 C66.6665111,9.20833333 56.0736262,18.3222137 53.5273654,30.4753402 C52.6975327,27.7870431 52.25,24.9259693 52.25,21.9583333 C52.25,21.7121953 52.2530787,21.4667903 52.2591989,21.2221562 C56.0954421,8.91596622 67.3948955,-7.10542736e-15 80.737013,-7.10542736e-15 Z" id="fire-(r)" transform="translate(80.042208, 16.567006) scale(-1, 1) translate(-80.042208, -16.567006) "></path>
                <path d="M28.737013,-7.10542736e-15 C40.3288404,-7.10542736e-15 50.3787854,6.73011843 55.3323184,16.5666173 C55.6616868,18.312144 55.8344156,20.1146745 55.8344156,21.9583333 C55.8344156,25.9270071 55.0340391,29.7051032 53.588867,33.1340117 C52.1291559,19.675709 40.9373266,9.20833333 27.3474026,9.20833333 C14.6665111,9.20833333 4.07362616,18.3222137 1.52736536,30.4753402 C0.697532656,27.7870431 0.25,24.9259693 0.25,21.9583333 C0.25,21.7121953 0.253078655,21.4667903 0.25919885,21.2221562 C4.09544208,8.91596622 15.3948955,-7.10542736e-15 28.737013,-7.10542736e-15 Z" id="fire-(l)"></path>
            </g>
            <path d="M66,128 L66,153.25 L110,153.25 C113.313708,153.25 116,155.936292 116,159.25 C116,162.563708 113.313708,165.25 110,165.25 L66,165.25 L66,229 L54,229 L54,165.25 L8,165.25 C4.6862915,165.25 2,162.563708 2,159.25 C2,155.936292 4.6862915,153.25 8,153.25 L54,153.25 L54,128 L66,128 Z" id="elements"></path>
            <path d="M60,11 C93.137085,11 120,38.0867726 120,71.5 C120,104.913227 93.137085,132 60,132 C26.862915,132 0,104.913227 0,71.5 C0,38.0867726 26.862915,11 60,11 Z M59.9767442,64.4651163 C56.1235948,64.4651163 53,67.614741 53,71.5 C53,75.385259 56.1235948,78.5348837 59.9767442,78.5348837 C63.8298936,78.5348837 66.9534884,75.385259 66.9534884,71.5 C66.9534884,67.614741 63.8298936,64.4651163 59.9767442,64.4651163 Z M59.6046512,122.151163 C87.347327,122.151163 109.837209,99.4738648 109.837209,71.5 C109.837209,43.5261352 87.347327,20.8488372 59.6046512,20.8488372 C31.8619754,20.8488372 9.37209302,43.5261352 9.37209302,71.5 C9.37209302,99.4738648 31.8619754,122.151163 59.6046512,122.151163 Z" id="sun"></path>
            <path d="M116.96451,3.55271368e-15 C117.343801,1.14497319 117.689363,2.30525472 118.000022,3.47967392 C111.221105,29.1064562 87.8228462,48.0017687 60.0000123,48.0017687 C32.1771784,48.0017687 8.77891997,29.1064562 2.00000262,3.47934574 C2.31066155,2.30525472 2.65622332,1.14497319 3.03551427,1.50990331e-14 C10.9322265,23.8415973 33.4519033,41.0451657 60.0000123,41.0451657 C86.5010628,41.0451657 108.98795,23.9025327 116.922662,0.128271809 Z" id="moon"></path>
        </g>
    </g>
</svg>